<svg xmlns="http://www.w3.org/2000/svg" width="1024" height="1023.829"><path d="M.214 511.893V0H1024v1023.786H.214z" fill="#f9f9f9"/><path d="M.214 968.78v-55.008l12.513-11.87c6.883-6.527 17.286-14.4 23.118-17.494l10.604-5.626v-38.017c0-34.636-.587-38.33-6.605-41.551-18.031-9.65-.207-12.43 43.52-6.787 13.3 1.716 48.44 3.727 78.09 4.469 61.827 1.546 56.35 4.155 69.911-33.288l7.514-20.744-10.206-22.189c-14.64-31.829-25.871-62.953-28.556-79.14-1.28-7.71-4.054-15.141-6.167-16.513-2.112-1.372-35.688-3.237-74.613-4.145l-70.773-1.652-2.407-9.02c-2.096-7.857-4.85-166.956-7.635-441.075-.675-66.415-1.675-81.07-5.81-85.206-4.04-4.04-5.587-4.175-8.1-.7-3.561 4.923 2.294 548.949 5.948 552.593 1.25 1.248 20.956 3.38 43.79 4.74 47.11 2.804 54.574 6.156 52.046 23.378-.96 6.54.504 12.228 4.197 16.31 5.809 6.418 4.448 13.288-2.632 13.288-2.18 0-5.821-2.973-8.09-6.606-6.865-10.993-20.209-8.345-35.987 7.14-10.61 10.413-15.045 12.88-18.298 10.18-3.123-2.591-6.04-2.287-10.695 1.117-3.521 2.575-8.929 4.681-12.018 4.681-7.105 0-10.986 14.42-6.259 23.254 4.588 8.573 1.579 13.074-8.74 13.074-11.88 0-21.055 5.807-21.055 13.326 0 3.57-1.486 6.49-3.303 6.49-2.183 0-3.302-129.9-3.302-383.095V0H821.5l-.303 21.302c-.387 27.17-4.248 31.438-17.986 19.878-11.572-9.737-10.652-10.744-18.194 19.917-4.746 19.297-4.631 20.55 4.375 47.887 18.51 56.185 22.968 71.273 25.204 85.323 2.44 15.335 8.319 20.298 16.248 13.718 2.758-2.29 4.911-2.629 4.911-.774 0 1.816-2.327 5.234-5.171 7.595-8.258 6.853-15.163 22.704-12.94 29.707 2.59 8.162 14.905 8.444 24.638.562 6.665-5.397 19.894-35.992 19.894-46.01 0-2.34-2.07-4.255-4.6-4.255-5.579 0-9.109-8.07-6.502-14.862 2.566-6.687 13.332-6.283 17.21.646 2.828 5.054 4.34 4.68 15.505-3.836 11.993-9.148 12.512-9.243 16.989-3.123 6.384 8.728 8.828 20.057 5.814 26.947-1.393 3.182-2.222 7.125-1.842 8.76.38 1.637-4.01 7.824-9.755 13.751-10.023 10.342-10.794 20.345-1.287 16.697 3.508-1.346 4.033 1.763 2.492 14.773-1.667 14.073-.918 17.441 5.13 23.075 3.894 3.629 7.081 9.424 7.081 12.879s1.486 7.2 3.303 8.322c1.816 1.123 3.302 4.963 3.302 8.533 0 3.886 3.314 7.752 8.256 9.631 6.32 2.403 8.257 5.506 8.257 13.228 0 5.55 3.888 19.327 8.64 30.617 10.288 24.444 11.914 59.464 3.663 78.914-4.813 11.346-4.745 12.485 1.066 17.743 3.415 3.09 8.726 12.212 11.804 20.27 4.728 12.38 5.002 17.218 1.77 31.22-2.104 9.115-3.825 21.546-3.825 27.626 0 10.281-10.14 26.764-22.359 36.348-3.769 2.956-17.804 35.566-47.165 109.582-5.178 13.054-13.293 31.389-18.034 40.744-9.565 18.875-9.52 25.277.603 84.997 4.84 28.554 5.761 30.715 13.87 32.531 24.676 5.528 35.53 8.988 46.291 14.756 6.509 3.489 14.258 6.343 17.22 6.343 5.981 0 68.291 20.195 74.799 24.242 3.084 1.919 4.128 19.64 4.128 70.075v67.507H.214zM128.81 849.825c22.816-6.526 49.563-15.423 59.438-19.77 16.984-7.479 17.648-8.214 12.277-13.595-4.878-4.887-15.084-5.921-72.447-7.34-37.278-.922-68.64-.338-71.007 1.322-3.33 2.335-2.887 4.459 2.065 9.907 9.328 10.266 13.732 20.187 13.732 30.937 0 11.304 2.778 14.886 9.534 12.293 2.708-1.04 23.592-7.229 46.408-13.754zm720.154-27.243c0-9.255-7.41-39.882-9.649-39.882-1.05 0-6.256 5.447-11.567 12.104l-9.658 12.104 12.96 10.965c14.998 12.688 17.914 13.455 17.914 4.71zm-40.541-53.918c25.326-33.514 24.03-29.019 24.015-83.298-.017-63.365-3.584-133.844-6.775-133.844-1.356 0-5.712 5.502-9.68 12.225-7.685 13.026-12.564 35.814-14.943 69.796-1.305 18.633-19.647 74.224-27.966 84.758-8.008 10.14-6.843 24.3 3.771 45.824 5.934 12.032 12.518 21.878 14.632 21.878 2.114 0 9.74-7.803 16.946-17.339zm78.099-159.961c11.662-29.03 14.64-40.787 15.912-62.82 1.89-32.752-1.832-36.337-20.356-19.602-6.8 6.143-14.431 11.868-16.959 12.723-3.676 1.243-4.502 11.247-4.126 49.979.259 26.633 1.49 52.486 2.735 57.45 2.84 11.315 3.585 10.083 22.794-37.73zm-692.86-23.33c-2.84-24.971-9.088-50.394-11.95-48.626-1.252.774-1.576 5.075-.719 9.558 1.334 6.976-.038 8.566-9.525 11.035-9.531 2.482-10.934 4.126-10.02 11.744.763 6.367-.427 8.859-4.232 8.859-2.912 0-6.232 2.444-7.378 5.431-2.935 7.649 7.62 14.384 22.543 14.384 6.811 0 13.302 1.486 14.425 3.303 1.122 1.816 3.61 3.302 5.53 3.302 2.294 0 2.748-6.494 1.327-18.99zM910.33 393.82c-3.81-3.81-5.765 2.157-3.167 9.667l2.658 7.68 1.213-7.715c.668-4.242.351-8.577-.704-9.632zm-97.054 1.73c18.406-10.344 25.793-27.843 25.746-60.986-.02-14.177-.97-31.425-2.11-38.33-1.716-10.38-3.282-12.382-9.046-11.559-6.567.938-6.971 2.928-6.971 34.312 0 19.453-1.528 35.256-3.673 37.979-2.02 2.564-4.65 8.75-5.842 13.745-1.194 4.995-3.59 9.082-5.325 9.082-4.101 0-13.6 18.345-10.898 21.047 3.006 3.007 3.735 2.795 18.119-5.29zm-17.15-104.628c0-5.07 1.638-13.919 3.64-19.662 4.082-11.708 1.54-23.465-3.898-18.027-5.009 5.009-8.431 52.28-3.567 49.273 2.104-1.3 3.825-6.513 3.825-11.584zm-44.073 1.211c1.076-2.803 1.065-5.987-.022-7.076-2.353-2.352-12.047 5.111-12.047 9.274 0 4.984 10.014 3.16 12.07-2.198zm140.766-145.773c.257-11.583 3.506-17.38 9.814-17.51 5.174-.105 2.197 18.995-3.808 24.429-6.076 5.498-6.275 5.269-6.006-6.92zm2.383-30.77c0-1.817 1.398-3.303 3.108-3.303 1.709 0 4.026 1.486 5.148 3.303 1.123 1.816-.276 3.302-3.107 3.302-2.832 0-5.15-1.486-5.15-3.302zm0-36.328a3.312 3.312 0 013.302-3.303 3.312 3.312 0 013.303 3.303 3.312 3.312 0 01-3.303 3.302 3.312 3.312 0 01-3.302-3.302z" fill="#d2d2d2"/><path d="M.96 968.632l.905-55.154 13.815-10.071c29.695-21.648 45.589-29.22 90.943-43.323 25.885-8.05 48.994-14.635 51.355-14.635 2.36 0 15.403-4.778 28.986-10.619 20.756-8.925 25.17-12.217 27.673-20.64 1.639-5.513 8.308-22.599 14.82-37.97 6.513-15.37 11.842-29.447 11.842-31.281 0-1.835-6.697-19.2-14.882-38.591-17.54-41.555-27.85-80.035-28.208-105.286-.142-9.99-2.022-29.19-4.179-42.667-3.672-22.949-4.549-24.704-13.828-27.677-5.45-1.746-12.254-5.21-15.122-7.697-2.867-2.488-7.471-4.523-10.23-4.523-8.972 0-41.644-37.46-44.102-50.566-1.65-8.79-5.14-13.648-13.25-18.432-21.381-12.616-28.34-42.218-19.941-84.837 8.658-43.942 11.18-52.048 17.85-57.363 3.53-2.815 8.262-11.063 10.512-18.328 2.25-7.266 7.07-16.479 10.708-20.473l6.617-7.264-9.06-22.46c-18.078-44.809-13.9-83.522 8.53-79.036l9.601 1.92-.108-35.42c-.083-27.233-1.658-39.617-6.814-53.583-9.928-26.89-10.737-32.096-6.678-42.96l7.396-19.788L129.814 0H776.31v7.798c0 6.538-1.335 7.544-8.257 6.22-9.742-1.862-9.684-2.459-3.118 32.152 4.696 24.757 4.68 27.781-.184 35.205-5.722 8.733-14.508 8.362-25.267-1.069-6.448-5.651-12.53.458-6.48 6.508 2.021 2.022 3.675 5.898 3.675 8.614 0 6.463 16.373 23.463 22.599 23.463 2.667 0 9.82 3.791 15.894 8.425 9.513 7.256 11.045 10.398 11.045 22.657 0 9.58 2.593 18.053 7.932 25.92 5.009 7.38 8.507 18.198 9.494 29.358 1.827 20.665 11.442 48.898 16.817 49.379 2.055.184 8.566.07 14.47-.253 9.484-.52 10.733.402 10.733 7.922 0 9.538.955 9.998 10.337 4.977 5.2-2.783 6.149-5.585 4.474-13.21-1.819-8.281-1.134-9.678 4.742-9.678 3.902 0 6.867 2.138 6.867 4.953 0 3.083 3.12 4.954 8.257 4.954 7.16 0 8.256 1.465 8.256 11.047 0 6.867 2.509 13.318 6.63 17.047 8.008 7.248 16.488 23.548 16.488 31.695 0 3.264 2.6 7.411 5.78 9.217 4.847 2.755 5.122 4.356 1.704 9.941-5.166 8.44-2.077 16.827 6.197 16.827 16.828 0 27.18 63.86 14.599 90.062l-5.98 12.453 8.448 7.83c13.312 12.336 14.747 28.708 6.395 72.946-2.966 15.714-11.968 33.18-18.366 35.635-2.522.968-8.518 12.368-13.324 25.334-8.225 22.19-23.44 58.692-50.61 121.414-10.625 24.526-11.55 29.018-9.53 46.236 3.786 32.264 12.235 75.004 15.653 79.18 1.785 2.182 9.73 4.939 17.655 6.127 7.924 1.189 23.036 6.457 33.58 11.709 10.545 5.25 21.402 9.487 24.127 9.413 2.724-.075 20.906 4.761 40.404 10.745l35.451 10.88.052 66.877.051 66.876H.054zm851.19-143.824c-.118-10.745-8.057-48.08-10.81-50.832-1.773-1.774-25.4 30.63-25.4 34.837 0 3.15 29.628 26.457 33.851 26.628 1.362.056 2.424-4.73 2.36-10.633zm-114.364-8.256c6.264-12.423 9.63-36.251 5.482-38.815-1.833-1.133-4.15.635-5.15 3.93-.998 3.293-4.663 13.254-8.143 22.135-3.48 8.881-5.536 17.427-4.57 18.99 3.223 5.216 7.757 2.931 12.381-6.24zm71.439-43.942c25.954-31.188 26.532-33.033 26.518-84.693-.007-25.066-.977-66.68-2.158-92.476-2.314-50.588-4.876-56.717-17.966-42.98l-6.973 7.319 2.288-14.862c1.259-8.173 4.263-22.292 6.676-31.374 4.278-16.1 6.3-28.978 16.847-107.332 2.811-20.889 5.907-43.673 6.88-50.633.973-6.96.719-26.65-.564-43.759-2.212-29.512-2.718-31.104-9.875-31.104-10.044 0-13.09 4.645-17.997 27.45-2.66 12.357-9.133 26.5-18.177 39.71-11.764 17.182-14.41 24.055-16.277 42.286-1.788 17.447-1.23 22.6 2.81 25.953 3.986 3.308 4.21 5.185 1.071 8.967-3.05 3.675-3.071 6.223-.094 10.99 4.793 7.675 2.111 15.476-6.23 18.124-3.464 1.1-6.3 3.385-6.3 5.079s-2.884 3.08-6.41 3.08c-9.43 0-11.173 5.037-11.37 32.862-.163 22.96.656 26.17 9.505 37.26 5.325 6.674 10.321 11.497 11.101 10.717.78-.78-.461-3.684-2.76-6.452-3.357-4.046-3.361-6.016-.021-10.04 4.023-4.849 2.906-29.974-2.245-50.5-1.614-6.43-.843-7.676 4.154-6.714 3.376.65 7.826 4.57 9.89 8.71 2.064 4.14 6.355 9.43 9.535 11.756 5.293 3.87 5.467 7.11 2.064 38.393-2.044 18.792-5.46 36.267-7.59 38.834s-4.313 14.584-4.85 26.704c-1.221 27.575-3.86 57.907-6.442 74.053-1.289 8.059-.7 12.384 1.683 12.384 5.773 0 4.325 8.821-4.218 25.705-13.025 25.738-15.822 39.757-9.248 46.346 3.064 3.07 9.266 13.38 13.782 22.91 4.515 9.529 10.034 17.326 12.264 17.326 2.23 0 11.543-9 20.697-20zm-23.97-110.864c-2.578-2.577.973-11.146 4.618-11.146 3.774 0 3.859 8.955.107 11.274-1.563.966-3.69.908-4.726-.128zm-156.178 56.202c6.44-2.471 7.281-28.504 1.086-33.646-4.312-3.578-4.97-3.255-23.603 11.59l-9.18 7.314 9.035 8.373c9.3 8.62 13.628 9.836 22.662 6.37zm97.716-62.82c2.69-31.28.027-79.873-5.631-102.744-3.289-13.293-31.89-50.768-33.272-43.594-.533 2.769 2.708 14.805 7.203 26.746 4.495 11.942 7.373 24.768 6.397 28.503-.986 3.77 2.992 18.739 8.938 33.64 10.397 26.056 10.655 27.883 8.732 61.855-2.56 45.185 3.678 41.585 7.633-4.406zm-109.005 6.755c0-5.832-7.11-4.816-9.15 1.307-.72 2.157 1.045 3.922 3.92 3.922 2.877 0 5.23-2.353 5.23-5.229zm252.729-8.145c2.864-5.54 11.689-26.299 19.61-46.132 12.132-30.378 14.563-40.316 15.425-63.066.963-25.424.59-27.165-6.392-29.748-5.96-2.205-9.909-.49-20.123 8.738-6.99 6.314-14.295 11.48-16.234 11.48-5.686 0-8.282 28.075-5.92 64.018 2.442 37.165 5.548 64.782 7.284 64.782.628 0 3.485-4.533 6.35-10.072zM597.973 477.863c0-6.451-4.05-17.299-9.908-26.535-5.45-8.592-9.908-20.03-9.908-25.416 0-10.632-8.132-13.498-16.073-5.664-3.358 3.312-5.502 2.332-10.844-4.954-11.673-15.92-39.722-10.033-34.256 7.19 1.167 3.675 2.686 13.614 3.376 22.086.69 8.472 2.63 16.78 4.31 18.46 1.68 1.68 11.802 3.407 22.492 3.836 20.523.825 33.137 5.784 40.265 15.828 6.514 9.18 10.546 7.333 10.546-4.831zm317.387-69.058c-1.273-12.197-3.438-23.3-4.811-24.674-3.796-3.796-8.563 5.833-9.297 18.778-1.162 20.488.246 27.935 6.09 32.208 8.64 6.319 10.713-.482 8.018-26.312zm-166.237-62.039c2.269-3.633 6.18-6.605 8.693-6.605 2.512 0 5.515-3.776 6.674-8.391 2.355-9.386 8.517-7.952 8.517 1.981 0 9.271 3.938 7.868 12.193-4.346 9.23-13.657 14.227-26.981 14.227-37.937 0-4.748 1.704-13.343 3.786-19.101 4.985-13.787 1.635-25.832-9.152-32.9l-8.747-5.73 2.156 8.588c1.186 4.723.754 11.207-.959 14.407-1.713 3.2-3.91 8.395-4.882 11.543-1.085 3.516-3.727 4.972-6.846 3.775-3.77-1.446-5.078.27-5.078 6.66 0 8.637-4.437 11.489-8.257 5.308-3.462-5.601-16.822-3.654-23.187 3.38-5.898 6.516-7.203 19.047-3.777 36.25.905 4.541 1.769 13.087 1.92 18.99.313 12.19 6.441 14.18 12.719 4.128zm25.182-100.997c4.72-12.301 1.999-21.03-8.201-26.305-20.638-10.672-24.956 3.236-6.97 22.447 9.79 10.455 12.386 11.115 15.171 3.858zm-634.346-13.995c-.661-14.613-16.097-44.818-21.27-41.621-7.14 4.413 10.667 59.168 18.354 56.432 1.94-.691 3.253-7.356 2.916-14.811zm725.52-22.708c0-17.847 26.106-34.788 35.734-23.188 4.387 5.287 1.127 10.702-8.194 13.61-3.924 1.223-9.531 5.882-12.46 10.352-7.193 10.977-15.08 10.572-15.08-.774z" fill="#ababab"/><path d="M.316 970.12l.102-53.666 13.934-10.231c25.59-18.79 49.914-30.31 92.79-43.946 23.39-7.439 44.939-13.616 47.886-13.727 2.947-.11 17-4.971 31.227-10.801l25.868-10.6 16.265-41.214c13.078-33.136 15.664-42.831 13.199-49.47-1.687-4.54-9.087-22.769-16.445-40.507-13.78-33.22-20.394-63.795-26.831-124.04-4.391-41.091-5.21-43.512-14.715-43.512-4.101 0-11.236-2.973-15.854-6.605-4.619-3.633-10.53-6.605-13.136-6.605-4.737 0-38.804-37.807-38.804-43.064 0-1.53 1.487-3.7 3.303-4.823 1.816-1.123 3.302-12.421 3.302-25.108 0-19.872-1.115-24.27-8.05-31.75l-8.05-8.681-2.255 8.982c-1.24 4.94-1.315 14.856-.167 22.036 2.19 13.698-.052 15.718-10.965 9.878-9.815-5.253-15.12-23.077-14.782-49.664.38-29.873 11.976-75.531 20.969-82.564 3.484-2.724 7.378-10.7 8.652-17.724 1.275-7.024 6.575-17.619 11.777-23.544l9.459-10.772-8.526-15.254c-4.689-8.39-7.891-17.114-7.117-19.39.774-2.274 4.593 2.08 8.487 9.676 3.893 7.597 8.583 14.742 10.422 15.878 4.349 2.688 22.502-7.63 31.709-18.023 6.107-6.894 8.019-7.485 12.41-3.84 3.548 2.943 4.583 7.356 3.269 13.928-1.058 5.29-.61 9.62.997 9.62 5.18 0 9.463-11.212 9.463-24.77v-13.21l-12.65 1.002-12.65 1.002 1.002-13.867c.833-11.542-.152-14.293-5.88-16.412-10.239-3.788-11.432-10.976-4.17-25.108 6.507-12.66 13.327-48.895 10.564-56.128-.804-2.106 1.014-8.618 4.04-14.47 4.064-7.859 4.91-14.595 3.235-25.76-1.795-11.974-2.925-13.945-5.427-9.474-3.356 5.997-12.74 7.819-12.74 2.474 0-1.746-2.714-5.833-6.031-9.082-5.01-4.908-5.71-9.264-4.128-25.724l1.902-19.815 19.292-1c12.886-.667 18.579.156 17.144 2.478-1.238 2.003.732 3.476 4.651 3.476 3.74 0 6.8-1.486 6.8-3.302 0-1.817 1.734-3.303 3.853-3.303 2.12 0 2.915.938 1.768 2.085s-.271 4.675 1.945 7.84c4.805 6.86 4.504 53.04-.442 67.685-6.002 17.773-11.914 52.448-12.105 71.004-.104 9.99-1.386 20.694-2.85 23.785-2.974 6.281.108 13.624 4.563 10.87 1.584-.978 6.124-8.805 10.09-17.391 3.964-8.587 9.253-19.557 11.752-24.379 2.5-4.82 4.544-11.016 4.544-13.766s5.07-8.134 11.267-11.964c9.94-6.143 21.042-25.115 17.04-29.118-3.467-3.466-8.578 3.65-6.752 9.4 2.306 7.267-1.207 7.934-13.143 2.495-7.984-3.638-10.039-8.045-8.99-19.285.254-2.725.86-21.673 1.345-42.107L219.832 0h208.481C606.813 0 637.368.69 640.786 4.808c2.195 2.645 3.032 6.36 1.86 8.256-2.91 4.708-19.324 4.358-24.198-.515-6.185-6.186-4.434 1.484 2.133 9.344 3.232 3.868 10.985 8.22 17.229 9.672l11.352 2.64-14.492 2.618c-7.97 1.44-15.349 3.475-16.396 4.522-3.373 3.373 4.924 13.113 12.08 14.18 3.815.57 7.803 3.542 8.863 6.606 1.059 3.063 6.29 10.667 11.625 16.896 9.187 10.73 10.022 11.034 15.828 5.78 8.132-7.36 10.567-7.057 23.958 2.974 6.256 4.686 19.548 12.955 29.538 18.374 37.486 20.335 43.64 24.503 48.066 32.55 2.498 4.541 4.594 11.124 4.658 14.627.064 3.504 1.931 11.388 4.148 17.52 3.333 9.214 3.22 11.649-.647 14.039-2.714 1.677-7.09 1.601-10.42-.18-3.157-1.69-10.405-3.073-16.107-3.073-18.108 0-10.794 10.008 14.887 20.368 24.299 9.804 44.584 27.962 44.584 39.909 0 5.18-2.86 3.796-15.687-7.59-8.628-7.66-20.47-15.96-26.314-18.445-10.315-4.386-33.957-6.308-33.957-2.761 0 7.27 10.405 23.823 17.29 27.503 9.128 4.88 18.217 18.896 14.598 22.515-1.236 1.236-6.627-.991-11.98-4.95-14.29-10.564-19.345-8.765-8.165 2.905l9.677 10.1-13.784 11.451c-17.312 14.38-23.265 30.261-17.691 47.197 3.244 9.857 3.056 13.671-1.065 21.593-4.444 8.544-4.453 10.69-.08 19.145l4.924 9.522 9.996-8.41c5.498-4.627 11.369-8.412 13.046-8.412 1.677 0 3.049-3.715 3.049-8.256 0-5.138 1.871-8.257 4.954-8.257 2.724 0 4.953 1.486 4.953 3.303 0 7.822 10.634 2.244 19.773-10.373 10.045-13.866 16.503-32.319 23.126-66.075l3.66-18.654 13.874 1.77c16.613 2.119 15.182 1.183 16.28 10.648.698 6.012-1.166 8.299-8.396 10.3-12.91 3.573-18.779 9.162-18.779 17.881 0 13.068-9.67 35.425-22.906 52.956-7.07 9.363-15.901 22.71-19.626 29.66-3.724 6.948-8.25 13.548-10.059 14.666-4.138 2.557-5.703 25.83-2.388 35.516 2.151 6.286.993 7.676-8.416 10.098-15.483 3.984-20.166 15.105-15.841 37.619 9.097 47.359 10.438 51.695 18.276 59.058 4.466 4.196 8.12 9.992 8.12 12.88 0 2.89 2.972 10.8 6.605 17.577 9.206 17.176 8.509 39.26-3.506 111.031-8.59 51.315-11.648 62.965-20.335 77.457-12.982 21.659-31.959 41.827-39.355 41.827-12.087 0-11.545-26.277.931-45.11 4.622-6.976 10.273-19.372 12.558-27.546 2.285-8.173 6.343-21.15 9.017-28.837 6.993-20.1 8.781-56.747 4.715-96.659-5.116-50.22-6.584-55.753-20.464-77.166-6.906-10.654-13.51-23.713-14.676-29.019-2.079-9.465-22.56-32.522-28.888-32.522-5.97 0-.341 31.148 8.056 44.585 8.167 13.067 17.641 48.557 15.477 57.979-.615 2.68 4.45 15.47 11.255 28.422 11.762 22.383 12.374 25.092 12.374 54.74 0 18.166-2.053 37.962-4.918 47.404-2.705 8.917-5.022 19.184-5.148 22.817-.127 3.633-3.78 13.293-8.12 21.467-4.338 8.173-9.415 18.205-11.282 22.292-1.866 4.087-4.878 7.43-6.693 7.43-1.815 0-5.605 4.459-8.423 9.908-5.201 10.059-12.646 12.861-16.707 6.29-1.23-1.99-2.595-16.48-3.034-32.2-.962-34.47-9.133-67.406-20.141-81.186-14.045-17.581-14.818-18.403-17.217-18.302-1.29.054-9.034 6.005-17.208 13.225-13.684 12.086-14.403 13.48-9.082 17.604 7.675 5.946 7.32 14.29-.826 19.377-11.476 7.167-6.344 26.33 11.766 43.93 5.67 5.51 11.368 14.428 12.661 19.815 7.356 30.635 7.386 32.746.605 42.132-5.487 7.594-5.94 10.214-2.57 14.862 2.25 3.103 6.288 10.419 8.974 16.256 2.685 5.838 8.027 12.298 11.872 14.356 5.69 3.045 6.652 5.833 5.167 14.98-1.646 10.145-1.059 11.24 6.03 11.24 4.32 0 8.702-1.372 9.738-3.049 1.036-1.677 6.139-3.983 11.339-5.125 12.909-2.835 26.11-16.953 20.809-22.253-5.882-5.883-4.729-17.415 2.618-26.176 5.594-6.671 7.03-7.082 9.941-2.843 1.871 2.725 2.669 8.089 1.772 11.92-1.022 4.365.843 9.207 4.991 12.961 6.436 5.825 7.017 5.72 20.588-3.726 17.802-12.39 24.83-26.998 26.574-55.236 1.561-25.28 6.55-34.045 13.795-24.235 2.47 3.347 5.422 12.264 6.56 19.816 5.447 36.192 2.852 35.388 28.526 8.834 12.572-13.003 27.272-31.339 32.668-40.746 9.701-16.916 9.806-17.635 9.45-64.992-.197-26.338-1.298-67.95-2.445-92.471-2.03-43.363-2.296-44.614-9.72-45.666-10.873-1.541-12.022-7.739-5.929-31.996 2.952-11.752 8.379-47.014 12.059-78.36 3.68-31.345 8.126-62.193 9.882-68.55 1.817-6.585 2.276-28.06 1.065-49.902l-2.127-38.343 18.43-8.718c22.834-10.803 25.442-10.834 25.442-.305 0 4.628 3.388 11.687 7.529 15.687 9.81 9.479 17.406 26.483 12.552 28.101-5.574 1.858-4.281 8.563 5.157 26.754 5.67 10.929 10.844 16.818 14.777 16.818 14.658 0 24.18 49.635 14.573 75.958-10.275 28.15-11.895 34.587-7.634 30.326 6.235-6.235 9.208-4.667 14.312 7.547 6.035 14.444 6.084 32.86.148 55.263-6.904 26.053-11.509 36.436-18.259 41.163-3.34 2.34-6.987 7.9-8.105 12.355-2.28 9.08-39.299 98.928-56.888 138.068-10.046 22.356-11.193 27.608-9.372 42.933 3.426 28.827 11.786 72.612 15.59 81.647 1.962 4.658 3.974 11.985 4.471 16.282 1.147 9.901 2.972 11.661 9.498 9.157 4.146-1.591 4.496-3.398 1.678-8.665-3.108-5.806-2.558-6.654 4.318-6.654 14.183 0 30.047 7.467 46.788 22.021 16.968 14.752 28.128 18.31 28.128 8.968 0-3.916 1.98-4.816 7.43-3.378a9205.562 9205.562 0 0029.724 7.722l22.292 5.76v130.64H.214zm792.193 20.195c2.3-.767 7.771-13.781 12.156-28.92 9.05-31.246 10.32-64.53 4.148-108.702l-3.834-27.433-10.409 10.92c-14.238 14.938-17.465 25.364-19.736 63.761a19746.585 19746.585 0 01-3.973 65.02c-1.11 17.598-1.057 34.507.12 37.575 1.883 4.904 3.059 4.587 9.742-2.624 4.181-4.512 9.485-8.83 11.786-9.597zm219.932-75.788c0-5.619-2.075-8.277-7.01-8.981-9.48-1.353-13.511 9.273-5.688 14.993 7.94 5.806 12.698 3.554 12.698-6.012zm-156.87-83.78c0-11.085-10.095-59.106-13.096-62.3-1.394-1.483-6.362 3.837-11.041 11.822-4.68 7.985-10.823 16.439-13.652 18.787-8.411 6.98-6.111 11.763 13.371 27.802 19.358 15.936 24.417 16.742 24.417 3.888zm20.197-182.624c22.834-50.834 31.282-80.181 31.133-108.158l-.141-26.42-9.908-.772c-7.643-.595-13.531 2.499-25.762 13.536l-15.854 14.308-.24 29.396c-.254 31.036 3.664 93.732 6.12 97.925 2.827 4.83 4.75 2.229 14.652-19.815zm-229.219-27.894c9.428-8.857 32.784-10.7 41.438-3.271 8.246 7.08 11.156 2.18 6.083-10.243-2.382-5.834-6.03-15.077-8.107-20.54-2.077-5.463-6.934-13.08-10.794-16.925-3.86-3.846-7.58-8.294-8.267-9.883-.687-1.59-5.287-6.452-10.223-10.805-7.447-6.568-9.835-7.202-14.025-3.724-3.598 2.986-6.263 3.186-9.262.697-2.316-1.922-18.292-4.075-35.502-4.783-17.21-.709-34.763-3.154-39.005-5.433-16.675-8.962-11.711 4.347 8.817 23.642 7.252 6.816 15.242 11.601 17.758 10.636 8.47-3.25 20.314 13.773 21.292 30.604.674 11.6 2.808 16.99 8.446 21.328 10.263 7.899 22.081 7.408 31.351-1.3zm-26.56-31.277c-1.21-1.21-2.201-3.737-2.201-5.614 0-2.07 1.538-1.874 3.908.495 2.15 2.15 3.14 4.676 2.202 5.615-.939.938-2.698.715-3.908-.496zm-23.752-86.803c6.989-13.516 6.292-30.993-1.873-47-5.048-9.894-6.35-16.761-4.828-25.463 5.915-33.807 5.88-34.985-1.197-41.39-6.748-6.107-6.879-6.102-6.879.23 0 7.684-5.994 14.383-12.868 14.383-9.877 0-29.706-17.295-36.57-31.9-3.827-8.14-8.55-14.27-10.497-13.622-1.946.65-7.833 9.3-13.083 19.223-9.442 17.85-12.246 35.251-6.66 41.326 1.586 1.725 7.003 16.513 12.037 32.86 5.034 16.348 10.306 31.017 11.715 32.6 1.43 1.605 9.318.574 17.85-2.333 11.466-3.907 17.515-4.362 24.199-1.821 13.677 5.2 20.482 12.926 20.482 23.255 0 11.927 1.865 11.848 8.172-.348zm323.121-64.16c1.923-5.011-2.684-46.732-6.162-55.794-1.204-3.138-3.459-5.706-5.011-5.706-5.651 0-15.61 51.144-11.86 60.914 2.464 6.42 20.617 6.883 23.033.587zm-722.785-15.036c1.045-1.691.39-4.008-1.456-5.149-1.846-1.14-3.356.243-3.356 3.074 0 5.801 1.981 6.656 4.812 2.075zm-1.56-35.07c.05-9.902-4.884-17.999-10.967-17.999-3.201 0-.625 27.548 3.148 33.652 3.18 5.146 7.76-4.023 7.819-15.653zm-17.578-48.547c-.916-2.27-1.666-.413-1.666 4.128 0 4.54.75 6.398 1.666 4.128.916-2.27.916-5.986 0-8.256zm29.901-61.097c-.756-4.995-1.376-.909-1.376 9.082 0 9.99.62 14.077 1.376 9.082.757-4.996.757-13.17 0-18.164zm660.344-65.776c-3.688-3.688-2.56-6.774 6.348-17.36 9.132-10.853 24.475-14.117 24.475-5.207 0 2.724-2.184 4.954-4.855 4.954-2.67 0-8.15 4.458-12.18 9.907-7.519 10.17-9.96 11.535-13.788 7.706zm-757.961-7.706c0-4.54.75-6.398 1.666-4.128.916 2.27.916 5.986 0 8.256-.917 2.27-1.666.413-1.666-4.128zm19.829-9.082c-9.76-12.07-10.138-12.217-14.946-5.78-4.661 6.242-5.06 6.277-7.245.64-3.228-8.33 2.66-26.809 8.928-28.016 2.861-.551 10.548 2.411 17.081 6.582 10.858 6.932 11.892 8.934 12.02 23.272.076 8.628-1.203 15.687-2.843 15.687s-7.488-5.573-12.995-12.385zM700.35 3.303c0-1.817 2.317-3.303 5.149-3.303s4.23 1.486 3.108 3.303c-1.123 1.816-3.44 3.302-5.15 3.302-1.708 0-3.107-1.486-3.107-3.302z" fill="#8d8d8d"/><path d="M.353 970.12l.14-53.666 12.245-7.956c43.71-28.397 99.288-50.978 142.724-57.988 8.158-1.316 17.892-4.328 21.632-6.692 3.74-2.364 13.348-6.513 21.352-9.218 13.828-4.675 15.03-6.13 24.137-29.235 5.27-13.373 13.021-33.033 17.223-43.688 7.569-19.193 7.583-19.5 1.554-33.025-29.444-66.05-41.787-117.683-28.133-117.683 7.295 0 6.17-14.858-1.533-20.238-7.498-5.238-13.692-39.208-7.149-39.208 2.05 0 3.728 4.459 3.728 9.908 0 5.45 1.605 9.908 3.565 9.908 2.114 0 2.85-3.698 1.807-9.082-.966-4.995-2.694-29.888-3.84-55.318-1.144-25.43-3.531-51.922-5.304-58.872-2.3-9.015-2.12-13.965.624-17.272 2.679-3.228 3.136-12.674 1.505-31.098-1.967-22.227-3.873-28.388-11.908-38.5-5.262-6.62-9.566-14.26-9.566-16.979 0-9.1-7.614-30.477-10.855-30.477-5.229 0-.684 47.808 8.476 89.168 10.442 47.152 14.657 120.578 7.088 123.482-9.232 3.543-36.11-11.972-52.484-30.297l-12.642-14.147 1.892-38.41c1.844-37.444 1.68-38.684-6.512-49.425-4.622-6.06-9.573-11.018-11.004-11.018-3.18 0-7.623 30.01-7.004 47.3.37 10.346-.588 12.432-5.313 11.56-9.918-1.833-18.258-24.235-18.062-48.516.202-24.907 13.693-70.938 23.459-80.036 3.332-3.104 7.087-12.1 8.344-19.991 1.82-11.424 5.632-17.542 18.713-30.034 9.036-8.628 19.245-15.687 22.686-15.687 3.441 0 8.612-.904 11.49-2.008 3.7-1.42 6.521 1.054 9.627 8.44l4.394 10.45 12.43-13.759c11.718-12.97 12.302-14.637 10.187-29.082-1.234-8.427-3.554-16.681-5.156-18.342-1.703-1.765 2.055-12.051 9.05-24.769 6.579-11.962 15.492-28.38 19.806-36.484 9.352-17.565 13.359-20.542 21.12-15.695 4.282 2.674 8.089 2.612 14.332-.232 10.075-4.59 11.199-13.836 1.975-16.248-8.594-2.247-3.711-12.086 9.03-18.193 7.31-3.504 9.055-6.558 9.055-15.854 0-9.926-1.178-11.652-8.54-12.507-4.75-.553-10.423 1.278-12.788 4.128-2.337 2.816-6.71 5.12-9.716 5.12-3.006 0-8.865 2.382-13.02 5.291-9.716 6.806-10.676 5.497-7.216-9.843 1.566-6.943 2.047-20.375 1.07-29.848-1.277-12.367-.245-20.189 3.66-27.74L238.166 0 427.15.33c103.942.18 185.38 1.336 180.974 2.567-11.252 3.145-11.729 7.933-1.947 19.557 5.094 6.055 7.126 10.912 5.09 12.17-9.12 5.636 1.671 34.762 15.155 40.906 5.233 2.384 6.655 5.335 5.495 11.405-1.218 6.367.118 8.723 6.004 10.59 4.163 1.322 10.197 5.555 13.41 9.408l5.84 7.004 8.58-9.907c5.655-6.529 9.17-8.5 10.307-5.78.949 2.27 5.688 4.25 10.532 4.397 4.843.148 17.723 5.303 28.622 11.455 10.898 6.152 23.947 12.88 28.997 14.95 10.635 4.361 17.777 16.445 19.4 32.825 1.127 11.37.984 11.51-12.07 11.814-20.585.48-21.466.856-21.466 9.149 0 6.42 3.665 9.392 20.64 16.744 32.061 13.884 34.554 15.35 44.414 26.13l9.253 10.116-12.386-9.1c-6.812-5.006-17.619-11.287-24.016-13.96-11.748-4.909-39.335-7.684-42.72-4.298-1.01 1.01-.882 6.603.283 12.43 1.572 7.86 5.258 12.196 14.28 16.799 12.338 6.294 23.33 16.594 17.708 16.594-1.692 0-5.96-2.182-9.486-4.849-7.207-5.45-21.272-6.723-21.272-1.924 0 1.724 5.201 7.102 11.558 11.951 6.358 4.849 11.56 9.88 11.56 11.178 0 1.299-8.02 7.885-17.823 14.636-9.802 6.751-18.699 15.544-19.77 19.539-3.098 11.553-2.364 21.691 2.09 28.85 3.416 5.493 3.132 8.378-1.648 16.731-3.396 5.934-4.982 13.263-3.848 17.78 1.061 4.228.265 10.798-1.77 14.6-5.415 10.117 3.65 9.134 27.907-3.027 26.528-13.3 40.766-24.097 50.325-38.163 9.328-13.728 20.66-45.043 20.724-57.27.106-20.008 3.084-23.84 17.695-22.77 18.656 1.367 19.93 9.727 2.526 16.564-12.081 4.745-13.305 6.44-16.797 23.26-2.07 9.977-8.174 24.642-13.562 32.588-24.734 36.48-38.24 52.428-44.398 52.428-2.092 0-6.974 3.376-10.85 7.502l-7.049 7.502 7.886 13.882 7.885 13.882-16.037 2.128c-13.48 1.788-16.644 3.591-19.84 11.31-2.093 5.05-3.515 11.932-3.16 15.293 1.482 14.066-.343 30.88-3.353 30.88-1.78 0-6.14-5.694-9.69-12.653-7.487-14.676-27.583-31.254-35.864-29.587-10.246 2.062-7.112 28.407 6.468 54.377 11.362 21.728 18.803 53.152 14.308 60.424-1.31 2.121-9.202-2.494-19.916-11.647-16.935-14.469-18.897-15.247-43.005-17.07l-25.26-1.91 1.463-10.235c.804-5.628 3.46-17.227 5.903-25.775 4.19-14.67 3.932-16.777-4.614-37.587l-9.054-22.047 8.574-12.955c10.314-15.586 8.99-22.483-7.649-39.842-14.55-15.182-17.86-15.512-16.52-1.652 2.293 23.738-21.425 10.781-38.416-20.985-10.433-19.505-17.575-19.012-28.876 1.996-19.143 35.587-22.554 48.518-15.052 57.058 11.9 13.546 23.863 45.322 23.899 63.484l.036 18.164 17.803-9.082c20.363-10.387 26.624-11.04 39.921-4.164 11.312 5.85 14.404 13.807 11.46 29.497-3.211 17.118-8.83 20.433-24.318 14.35-25.545-10.035-25.964 2.926-.943 29.159 14.236 14.926 18.871 22.669 25.017 41.793 1.021 3.179 4.876 5.78 8.566 5.78 4.523 0 6.708 2.167 6.708 6.653 0 13.291 41.125 27.406 47.902 16.44 1.13-1.828 6.451-5.598 11.824-8.377 8.82-4.56 10.861-4.533 21.002.279 6.178 2.932 12.044 7.445 13.036 10.029 3.844 10.019 8.315 3.922 9.268-12.64l.998-17.338 5.29 9.908c4.4 8.239 4.856 15.469 2.71 42.933-3.453 44.192-14.324 79.623-27.883 90.876-2.687 2.23-4.886 5.943-4.886 8.25 0 2.309-2.35 5.099-5.224 6.201-12.237 4.696-14.027 2.352-15.487-20.287-1.86-28.827-13.992-60.464-32.224-84.027-13.21-17.072-15.388-18.567-24.54-16.831-13.18 2.5-13.988 3.504-6.957 8.645 5.506 4.026 5.194 4.915-4.623 13.176-5.79 4.872-11.694 8.858-13.12 8.858-1.427 0-3.595 9.776-4.82 21.723-2.38 23.24-.938 27.554 24.192 72.355 7.313 13.037 8.673 18.438 6.53 25.913-3.324 11.587-17.574 25.32-26.275 25.32-9.458 0-8.592 18.731 1.447 31.277 6.604 8.254 8.655 9.142 12.927 5.597 4.159-3.452 5.574-3.333 7.821.659 1.51 2.68 7.945 5.363 14.303 5.962 11.98 1.13 12.754 2.942 8.005 18.724-2.303 7.652-2.14 7.704 17.127 5.45 13.962-1.633 25.566-5.91 41.117-15.156 11.916-7.085 23.831-12.882 26.48-12.882 9.745 0 28.936-16.638 35.984-31.197 3.974-8.21 8.22-24.863 9.435-37.007 2.186-21.851 7.99-30.666 11.958-18.163 1.129 3.557 3.44 14.987 5.134 25.401 1.695 10.414 4.025 19.846 5.177 20.96 2.508 2.426 39.015-36.17 52.179-55.166 17.178-24.787 17.86-30.6 14.594-124.447-2.289-65.774-4.037-86.638-7.47-89.168-2.466-1.817-6.813-4.789-9.66-6.605-4.663-2.975-4.532-5.717 1.314-27.653 3.57-13.393 8.07-40.886 10-61.097 1.93-20.21 5.853-50.865 8.718-68.12 3.523-21.215 4.585-41.049 3.28-61.249-2.51-38.858-1.32-42.608 15.551-49.052 17.241-6.584 21.885-6.649 21.885-.305 0 2.741 4.308 9.493 9.574 15.003 8.184 8.564 9.321 11.906 7.83 23.018-1.266 9.449-.048 15.499 4.462 22.15 3.413 5.034 7.813 13.578 9.778 18.988 2.59 7.13 5.743 9.855 11.464 9.907 8.4.077 9.45 2.244 16.042 33.098 3.903 18.266 1.757 31.033-9.158 54.492-3.803 8.174-6.898 17.834-6.877 21.466.035 6.161.483 6.07 6.664-1.354 10.4-12.49 14.626-4.628 14.584 27.122-.038 28.926-8.196 59.207-18.415 68.355-3.044 2.724-8.79 13.87-12.77 24.769-8.367 22.91-34.877 86.218-53.473 127.695l-12.831 28.62 5.127 30.826c5.506 33.094 7.607 43.56 16.468 82.015 3.14 13.623 6.806 31.238 8.147 39.144 2.488 14.66 9.16 22.453 14.58 17.032 1.792-1.793.809-6.334-2.45-11.306-7.634-11.653-7.203-25.054.808-25.054 7.004 0 11.036-7.35 8.153-14.862-2.272-5.92-1.806-5.974 11.523-1.328 5.72 1.994 10.4 4.915 10.4 6.49 0 4.517 20.083 26.21 24.286 26.233 2.082.01 7.6 2.01 12.262 4.443 4.662 2.433 12.464 5.425 17.338 6.648 6.277 1.575 8.877 4.374 8.913 9.592.083 12.078 4.676 15.88 20.05 16.597l14.576.678 2.008-13.21c1.105-7.265 2.22 13.17 2.477 45.41l.469 58.62h-57.52c-42.786 0-58.012-1.057-59.445-4.128-1.541-3.303-2.312-3.303-3.853 0-1.445 3.096-18.057 4.128-66.435 4.128h-64.509l11.869-13.136c13.912-15.4 18.716-26.005 26.83-59.235 5.006-20.499 5.63-32.192 3.828-71.83-1.415-31.154-1.008-47.346 1.191-47.346 1.994 0 1.678-2.665-.782-6.605-6.017-9.633-10.305-8.254-23.092 7.43-17.068 20.936-19.075 26.34-19.075 51.366 0 12.596-2.39 36.1-5.312 52.232-2.922 16.131-5.4 42.334-5.505 58.227l-.192 28.897H.214zM854.68 862.956c-.962-8.535-.364-19.161 1.329-23.614 4.309-11.333-7.628-78.064-13.56-75.812-3.217 1.22-33.114 44.649-33.114 48.1 0 1.345 5.357 6.72 11.905 11.944 8.598 6.86 10.73 10.225 7.675 12.113-3.147 1.945-1.48 5.745 6.515 14.85 5.91 6.731 12.354 15.77 14.322 20.088 5.39 11.83 6.867 9.53 4.928-7.669zm23.279-216.485c24.266-55.22 29.435-72.003 31.107-100.998 1.476-25.592 1.08-27.85-5.665-32.27-9.017-5.907-15.951-3.4-34.264 12.392-12.576 10.844-14.166 13.907-15.89 30.597-2.142 20.761 5.251 120.828 8.928 120.828 1.298 0 8.4-13.747 15.784-30.549zm43.035-216.488c1.107-15.356-4.17-45.484-9.368-53.494-2.858-4.403-3.57-4.403-6.408 0-4.783 7.42-16.248 59.882-14.234 65.13 1.192 3.105 6.1 4.244 15.368 3.567 13.508-.987 13.626-1.11 14.642-15.203zM597.75 367.407c-3.305-9.437-22.895-23.569-22.895-16.516 0 4.242 19.683 25.598 23.594 25.598 1.365 0 1.051-4.087-.699-9.082zm-377.033-10.733c-2.269-3.633-5.266-6.605-6.66-6.605-1.396 0-.68 2.972 1.588 6.605 2.269 3.633 5.266 6.605 6.66 6.605 1.396 0 .68-2.972-1.588-6.605zm-5.984-57.817c4.378-46.174 4.343-47.864-.994-47.864-10.347 0-14.562 11.394-16.159 43.686-1.234 24.953-.5 33.68 3.283 39.083 2.68 3.826 6.122 5.706 7.65 4.178 1.527-1.527 4.326-19.114 6.22-39.083zm354.711 36.35c-2.01-5.237-7.8-6.872-7.8-2.201 0 3.492 3.61 7.155 7.053 7.155 1.456 0 1.793-2.229.747-4.954zm-321.576-6.562c4.357-5.25 2.018-21.51-3.094-21.51-5.077 0-13.383 10.054-13.383 16.199 0 10.9 9.34 13.91 16.477 5.311zm279.834-33.613c1.793-5.385-12.116-9.21-16.726-4.6-2.822 2.823-2.532 4.562 1.158 6.93 6.126 3.93 13.87 2.771 15.568-2.33zm205.675-22.768c0-6.053-4.672-6.114-9.641-.126-2.954 3.558-2.856 4.987.42 6.16 5.719 2.046 9.22-.246 9.22-6.034zM315.263 70.706c2.684-6.994-.314-11.26-7.914-11.26-7.423 0-11.19 5.101-8.652 11.717 2.47 6.434 14.044 6.116 16.566-.457zm35.02-11.717c0-3.748-9.465-7.692-12.11-5.048-1.054 1.055-1.046 4.185.017 6.958 2.004 5.218 12.093 3.624 12.093-1.91zm333.556 773.445c0-3.74 1.486-6.8 3.302-6.8 1.817 0 3.303 2.141 3.303 4.759 0 2.617-1.486 5.677-3.303 6.8-1.816 1.122-3.302-1.019-3.302-4.759zm21.704-58.559c-1.013-2.641.623-9.538 3.637-15.327 5.945-11.42 19.13-58.615 24.82-88.838 3.208-17.043-.023-86.763-5.478-118.187-.788-4.54-2.442-13.829-3.675-20.64-4.87-26.9 12.805-9.439 32.593 32.2 6.793 14.293 9.666 28.657 9.578 47.886-.033 7.08-9.56 67.662-14.025 89.169-2.073 9.99-4.839 23.365-6.145 29.722-5.029 24.467-36.1 57.578-41.305 44.015zm3.562-266.83c-1.023-2.666-.439-5.726 1.298-6.8 1.737-1.074 3.158-1.243 3.158-.376 0 .867.902 3.927 2.005 6.8 1.103 2.873.518 5.224-1.298 5.224s-4.14-2.182-5.163-4.848zm159.676-300.06c0-5.384 13.786-18.74 19.343-18.74 2.23 0-.094 5.201-5.167 11.558-9.72 12.183-14.176 14.44-14.176 7.181zM128.193 190.73c-7.198-9.335-8.87-10.08-13.678-6.09-3.013 2.5-6.347 3.676-7.41 2.614-3.56-3.56 6.939-22.127 12.513-22.127 6.965 0 22.605 18.32 22.605 26.479 0 10.54-5.49 10.198-14.03-.876zm33.845-19.114c0-1.88 2.202-6.78 4.894-10.888 2.691-4.107 6.43-19.288 8.309-33.735 3.912-30.079 9.593-54.547 13.736-59.158 3.529-3.928.642 21.823-5.873 52.38-2.673 12.535-3.907 27.125-2.744 32.422 1.495 6.807.421 11.503-3.661 16.014-6.202 6.852-14.661 8.563-14.661 2.965zm24.452-134.6c-1.96-1.287-4.41-5.683-5.443-9.77-1.457-5.764-.466-7.43 4.418-7.43 9.83 0 11.316 1.178 10.329 8.185-1.19 8.445-4.817 11.96-9.304 9.015zm-29.266-22.33c-2.802-6.704-5.094-12.752-5.094-13.438 0-.686 6.7-1.248 14.89-1.248 14.378 0 14.757.255 11.045 7.43-2.114 4.088-4.833 9.572-6.043 12.189-4.186 9.053-9.726 7.207-14.798-4.932z" fill="#757575"/><path d="M.214 971.413V919.04l17.653-11.721c27.015-17.937 53.488-30.343 88.893-41.659 32.147-10.274 54.247-13.348 50.324-7-3.389 5.482.172 3.85 18.479-8.469 9.62-6.474 21.625-12.598 26.678-13.608 12.07-2.414 12.751-3.501 27.56-43.974 6.978-19.073 14.503-36.706 16.72-39.187 7.147-7.992 13.719 8.53 16.244 40.838 3.461 44.294 15.09 65.429 21.93 39.856 1.758-6.574-.237-17.32-6.895-37.133-5.154-15.335-10.273-28.785-11.377-29.889-1.103-1.103-2.007-5.265-2.007-9.248 0-3.982-5.245-13.766-11.656-21.741-9.638-11.991-11.329-16.35-9.766-25.188 1.039-5.878.26-13.73-1.73-17.45-4.834-9.031-8.11-105.616-3.582-105.616 1.849 0 5.06 6.308 7.137 14.018 2.076 7.709 6.591 19.539 10.035 26.288 3.443 6.75 6.288 17.904 6.323 24.788.077 15.419 18.215 46.749 23.82 41.144 2.534-2.535 1.988-7.648-1.91-17.852-8.364-21.903-7.18-51.775 2.796-70.539 9.3-17.49 10.697-34.827 3.303-40.964-6.694-5.555-6.31-7.79 3.302-19.213 4.541-5.397 8.256-11.99 8.256-14.65 0-2.661 4.335-12.962 9.634-22.89 6.043-11.325 8.618-19.694 6.91-22.458-3.754-6.074-.809-12.287 6.763-14.267 6.909-1.806 14.304-17.307 11.608-24.332-.925-2.411-4.7-4.384-8.39-4.384-4.955 0-6.71-2.16-6.71-8.257 0-9.761-8.269-10.98-22.96-3.384-8.304 4.295-9.642 4.295-11.29 0-1.029-2.68-3.964-4.872-6.523-4.872-2.56 0-6.593-2.338-8.965-5.195-2.371-2.857-10.325-8.263-17.676-12.013-32.203-16.43-58.604-47.942-67.18-80.188-4.855-18.252-8.35-23.348-13.732-20.022-6.377 3.942-3.829 39.807 6.036 84.938 11.998 54.893 16.378 127.353 7.895 130.609-2.865 1.099-7.607.222-10.54-1.95-2.931-2.171-9.42-5.707-14.42-7.857-5-2.15-9.997-6.927-11.104-10.614-1.108-3.687-5.934-10.893-10.725-16.014-8.347-8.921-8.711-10.869-8.711-46.51 0-35.719-.384-37.752-9.637-51.113-8.318-12.01-10.278-13.273-14.32-9.232-2.892 2.892-5.384 14.942-6.521 31.527-1.012 14.764-3.08 26.844-4.595 26.844-5.419 0-12.456-15.144-14.585-31.387-2.737-20.876 3.111-53.41 11.699-65.078 3.621-4.922 6.585-10.637 6.585-12.7 0-2.064 2.76-7.697 6.133-12.519 3.373-4.821 6.955-15.14 7.96-22.931 3.161-24.525 15.876-31.288 28.544-15.183 4.655 5.918 8.592 7.94 12.524 6.43 4.908-1.883 4.202-3.399-4.898-10.521-5.848-4.577-10.633-11.183-10.633-14.68 0-5.376 1.969-6.183 12.718-5.215 16.51 1.488 20.307 4.086 20.307 13.899 0 4.433 1.487 8.061 3.303 8.061 1.816 0 3.303-1.34 3.303-2.977 0-7.223 34.8-43.175 49.576-51.217 24.215-13.18 24.403-16.496.812-14.357l-19.978 1.812-1.941-9.709c-1.445-7.223.718-14.42 8.45-28.121 8.93-15.823 13.22-19.752 30.495-27.924 12.705-6.011 25.476-9.512 34.704-9.513 8.664-.002 16.944-2.123 20.362-5.216 5.251-4.753 6.494-4.732 14.074.235 8.86 5.805 16.634 3.824 25.12-6.4 2.493-3.004 9.494-5.135 16.872-5.135 6.936 0 13.578-1.565 14.76-3.478 1.183-1.913 10.492-7.168 20.687-11.676 16.102-7.121 24.923-8.433 67.148-9.982 33.62-1.234 50.81-.608 55.742 2.032 5.715 3.059 8.273 2.78 12.895-1.402 3.928-3.555 12.187-5.217 25.93-5.217 21.222 0 27.244 1.82 48.667 14.71 36.309 21.847 47.98 25.336 61.154 18.286 6.019-3.222 12.92-2.261 49.769 6.926 6.515 1.625 15.288 5.94 19.494 9.588 4.207 3.648 8.908 6.634 10.447 6.634 1.538 0 2.797 3.703 2.797 8.23 0 6.274-2.943 9.613-12.385 14.049-15.41 7.24-17.717 17.278-6.078 26.434l8.318 6.542-10.592 3.038c-6.229 1.786-11.085 5.596-11.788 9.248-1.248 6.48 4.403 28.735 9.99 39.338 2.536 4.814 1.389 8.086-5.276 15.042-4.684 4.89-8.517 11.566-8.517 14.836 0 3.27-4.49 12.597-9.976 20.727l-9.977 14.782 8.462 10.056c10.067 11.964 9.285 16.4-3.64 20.651-13.022 4.283-12.673 3.68-8.282 14.28 5.04 12.169-.003 26.259-10.321 28.833-9.94 2.48-53.347-6.784-63.76-13.607-4.503-2.95-8.187-8.24-8.187-11.753 0-15.02-18.536-38.747-30.449-38.977-3.86-.075-7.225-5.137-10.503-15.797-4.436-14.427-4.89-14.891-5.658-5.78-.458 5.45-.538 14.128-.177 19.286.486 6.943-1.071 9.829-6.001 11.118-8.203 2.145-8.31 4.518-.656 14.561 7.842 10.29 15.276 28.98 12.594 31.663-4.27 4.27-18.97-14.103-30.183-37.725-6.342-13.361-11.53-24.88-11.53-25.599 0-.718 4.086-1.776 9.081-2.35 8.085-.931 9.02-2.3 8.522-12.455-.841-17.118-8.136-20.819-35.768-18.145-27.127 2.626-34.676 5.886-34.676 14.977 0 4.51 3.796 8.244 11.765 11.574 9.915 4.143 11.604 6.324 10.734 13.867-.807 6.995-2.837 9-9.29 9.178-4.54.124-10.485 1.152-13.21 2.283-2.724 1.132-7.867 2.525-11.429 3.097-4.088.656-8.282 5.901-11.377 14.229-2.696 7.254-12.043 24.073-20.77 37.376-8.728 13.302-15.869 25.122-15.869 26.268 0 1.145-6.688 15.829-14.861 32.631-15.171 31.186-18.347 46.235-10.402 49.284 2.453.94 9.735-3.564 16.182-10.012 10.834-10.833 13.232-11.722 31.612-11.722h19.89l3.923-12.385c4.863-15.352 11.282-20.64 25.052-20.64 18.2 0 24.378 11.74 24.378 46.327 0 21.136 1.192 29.381 4.427 30.623 6.747 2.59 13.32-2.918 10.927-9.155-3.434-8.949 3.378-17.298 18.973-23.253 12.587-4.808 15.865-4.96 23.904-1.106 11.946 5.725 17.007 19.272 11.619 31.098-3.494 7.668-5.304 8.477-14.627 6.536-11.933-2.484-28.94-2.773-31.183-.53-3.52 3.518 12.831 31.388 26.788 45.661 16.005 16.367 18.847 24.532 9.754 28.02-3.514 1.35-7.691-.647-11.69-5.585-4.382-5.41-7.258-6.65-9.722-4.186-4.846 4.846-.28 17.374 6.331 17.374 8.523 0 46.944 20.993 46.957 25.657.008 2.819-2.681 3.515-8.213 2.127-9.783-2.456-13.945 4.577-8.608 14.55 2.95 5.51 1.778 7.827-7.558 14.948-10.157 7.747-11.238 10.339-13.38 32.078-2.096 21.274-1.636 24.389 4.583 31.009 6.174 6.571 6.682 9.853 4.748 30.66-2.003 21.556-1.638 23.582 4.881 27.071 11.783 6.306 8.035 11.901-13.594 20.296-16.242 6.305-20.874 9.663-21.737 15.756-1.455 10.276 5.659 26.933 11.502 26.933 2.557 0 12.17 5.944 21.362 13.21 9.192 7.265 18.724 13.21 21.182 13.21 2.459 0 6.616 3.063 9.238 6.808 4.436 6.332 6.81 6.645 34.039 4.478 23.832-1.897 31.724-3.969 42.48-11.153 7.265-4.853 20.152-11.404 28.638-14.56 24.26-9.021 38.61-32.116 43.913-70.68 3.783-27.501 7.678-23.174 13.425 14.91 1.164 7.711 3.32 14.763 4.79 15.672 3.579 2.212 35.563-32.642 55.23-60.184l15.828-22.168.91-36.417c.5-20.03-.243-63.151-1.652-95.826l-2.56-59.41-9.082-4.344c-10.588-5.066-10.534-4.695-4.245-28.839 2.66-10.214 7.92-44.762 11.689-76.773 3.769-32.011 8.224-64.224 9.901-71.584 1.678-7.36 2.145-28.474 1.039-46.92l-2.012-33.537 14.013-7.15c14.098-7.191 23.28-7.023 23.28.427 0 2.21 3.242 7.469 7.203 11.685 5.222 5.559 7.265 11.995 7.43 23.412.16 10.923 2.435 18.549 7.432 24.901 3.96 5.036 8.193 13.67 9.405 19.186 1.875 8.537 3.363 9.738 10.004 8.071 8.722-2.189 14.594 5.2 14.696 18.495.033 4.223.926 14.661 1.986 23.196 1.608 12.94.23 19.112-8.298 37.162-5.625 11.905-10.227 23.783-10.227 26.395 0 8.715 7.417 9.511 13.838 1.487 6.312-7.888 6.323-7.83 4.69 26.77-1.838 38.953-5.953 59.236-13.077 64.445-2.651 1.939-9.98 16.84-16.288 33.114-11.27 29.082-29.856 73.065-53.03 125.492-13.851 31.34-46.261 85.778-56.941 95.645-1.967 1.816-9.399 11.435-16.516 21.376-12.56 17.543-13.003 19.096-15.039 52.84-1.18 19.55-6.85 56.09-12.957 83.48l-10.86 48.712H.214zm533.895-17.806c-.916-2.27-1.666-.413-1.666 4.128s.75 6.4 1.666 4.129c.916-2.27.916-5.986 0-8.257zM355.247 842.13c1.117-1.807 4.863-3.285 8.324-3.285 3.462 0 8.055-3.344 10.207-7.43 2.153-4.087 5.506-8.465 7.452-9.729 1.946-1.263 2.502-3.333 1.236-4.598-1.265-1.266-4.283-.657-6.706 1.354-6.917 5.74-23.622-.11-24.882-8.716-1.093-7.47-11.612-10.128-15.457-3.906-3.342 5.408-7.776 3.803-13.46-4.872-4.68-7.141-4.817-10.28-1.086-24.836 3.836-14.967 3.68-17.241-1.527-22.374-5.497-5.417-6.043-5.381-10.55.698-7.398 9.982-6.212 43.287 2.018 56.603 3.723 6.024 9.512 11.823 12.864 12.887 3.668 1.164 6.931 6.395 8.197 13.14 1.156 6.163 3.912 11.856 6.125 12.651 4.532 1.628 14.171-2.613 17.245-7.587zm-9.918-56.125c1.122-1.817.467-3.303-1.457-3.303-1.923 0-3.497 1.486-3.497 3.303 0 1.816.655 3.302 1.456 3.302.801 0 2.375-1.486 3.498-3.302zm50.271-71.495c2.22-4.782 3.247-9.971 2.283-11.533-2.714-4.39-19.214-3.353-26.04 1.638-10.783 7.885-3.842 15.565 16.419 18.166 1.816.233 5.118-3.489 7.338-8.27zm156.385-31.792c-.409-3.95-4.938-3.184-6.358 1.073-.726 2.18.463 3.369 2.642 2.642 2.18-.726 3.852-2.398 3.716-3.715zm325.988-32.8c27.998-63.235 31.514-74.83 32.131-105.985.492-24.83-.278-29.514-5.295-32.2-10.614-5.68-18.398-3.326-36.025 10.894l-17.399 14.036 2.089 66.05c2.063 65.264 3.888 82.237 8.53 79.368 1.309-.81 8.495-15.282 15.969-32.163zm-521.086-57.112c0-9.295.978-9.733 10.437-4.67 5.403 2.89 8.118 2.252 14.031-3.303 4.033-3.789 8.864-6.888 10.736-6.888 1.872 0 5.997-2.866 9.167-6.369 6.414-7.088 4.42-20.052-3.086-20.052-2.479 0-7.682-4.458-11.562-9.907-11.126-15.626-22.26-13.572-44.365 8.183-17.852 17.569-21.902 25.58-15.068 29.804 1.823 1.126 2.433 5.56 1.355 9.854-1.668 6.646-.565 8.015 7.419 9.21 19.93 2.985 20.936 2.704 20.936-5.862zm561.097-145.779c7.06-4.944 7.556-7.049 5.65-23.943-3.926-34.796-9.271-53.556-14.953-52.477-7.55 1.434-25.336 70.561-19.854 77.166 5.214 6.283 19.65 5.913 29.157-.746zm-567.136-9.952c6.09-5.51 8.228-14.35 3.472-14.35-5.267 0-17.248 10.454-17.248 15.05 0 6.356 6.334 6.035 13.776-.7zm-13.776-27.56c0-1.816-.655-3.302-1.456-3.302-.801 0-2.375 1.486-3.498 3.302-1.122 1.817-.467 3.303 1.457 3.303 1.923 0 3.497-1.486 3.497-3.303zm-41.281-3.302c-1.123-1.816-4.838-3.303-8.257-3.303-8.463 0-10.951-5.089-6.528-13.353 2.306-4.31 2.537-8.349.617-10.801-5.642-7.206-7.052-24.637-3.684-45.55 2.944-18.28 2.612-21.698-2.816-28.969-9.324-12.488-22.71-15.764-35.74-8.748-5.903 3.18-12.345 4.783-14.316 3.565-4.354-2.69-4.812-18.337-.537-18.337 1.675 0 4.83-5.573 7.012-12.385 2.18-6.811 6.942-15.653 10.581-19.647 8.529-9.362 5.548-18.868-4.936-15.74-10.123 3.02-33.61 16.677-37.813 21.987-1.88 2.375-4.265 20.043-5.3 39.263-1.808 33.616-1.543 35.521 6.985 50.07 10.326 17.617 27.895 37.167 43.477 48.382 15.446 11.117 56.448 21.97 51.255 13.566zm83.288-6.91c17.04-9.43 33.27-25.323 40.822-39.972 6.932-13.449 3.846-19.278-5.02-9.48-3.102 3.426-8.873 7.042-12.827 8.034-4.246 1.066-10.626 8.273-15.592 17.614-5.478 10.304-12.953 18.385-21.467 23.207-10.514 5.956-11.632 7.409-5.731 7.453 4.032.03 12.948-3.055 19.815-6.855zm-98.77-116.157c1.359-7.052-8.913-11.681-12.618-5.687-3.81 6.164-.084 13.671 6.185 12.464 2.93-.564 5.824-3.614 6.434-6.777zm249.178-19.768c.78-2.27.16-8.577-1.376-14.014-1.537-5.437-2.794-14.566-2.794-20.287 0-12.026-3.47-14-20.87-11.874-14.103 1.723-19.307 9.628-16.389 24.895.94 4.913-.08 11.09-2.267 13.724-2.187 2.634-3.017 6.341-1.845 8.237 3.122 5.053 43.78 4.445 45.541-.68zm261.05 754.63c.982-3.179 5.781-15.336 10.664-27.015 13.133-31.417 18.882-68.386 16.843-108.311-.949-18.576-.566-34.49.85-35.365 4.608-2.848 16.568 8.016 25.381 23.054 4.741 8.09 9.965 14.71 11.61 14.71 1.643 0 2.988-10.7 2.988-23.779 0-32.1 5.003-25.738 11.497 14.623 7.209 44.796 19.022 70.764 26.608 58.49 1.192-1.928 5.738-4.864 10.103-6.523 8.089-3.076 10.596-11.054 4.633-14.74-4.907-3.032-4-14.861 1.139-14.861 5.49 0 13.897 9.27 16.66 18.371 1.466 4.829-.343 8.909-6.214 14.014-4.556 3.96-8.283 8.565-8.283 10.232 0 8.246 53.826 39.946 67.827 39.946 2.784 0 8.742 2.412 13.24 5.36 5.314 3.481 11.635 4.667 18.048 3.384l9.869-1.974v36.163H911.714v-25.605c0-23.866-.64-26.209-9.404-34.482l-9.405-8.875 1.315 17.143c.723 9.428 2.725 23.374 4.45 30.99 1.725 7.615 3.136 15.418 3.136 17.338 0 2.317-19.006 3.491-56.528 3.491-52.316 0-56.395-.43-54.742-5.78zm-69.21-268.331c1.051-6.358 2.934-19.733 4.184-29.723 1.25-9.99 4.151-21.136 6.447-24.77 6.356-10.054 11.626-61.386 7.745-75.442-1.789-6.478-2.907-18.904-2.484-27.613.422-8.71-.472-23.266-1.988-32.348l-2.756-16.513 7.512 6.605c4.131 3.633 9.378 11.064 11.658 16.513 5.41 12.925 6.082 65.643 1.239 97.26-3.427 22.373-6.103 34.428-16.09 72.493-1.62 6.178-6.194 14.352-10.163 18.164l-7.216 6.933zm-58.244 1.261c-1.123-1.123-1.176-6.368-.118-11.657 1.35-6.753-1.761-18.925-10.454-40.891-6.807-17.202-13.636-31.277-15.174-31.277-1.54 0-6.538-5.503-11.109-12.23-8.587-12.637-6.46-19.29 5.026-15.724 2.865.89 12.03-2.01 20.368-6.443 18.278-9.718 26.504-8.211 35.148 6.438 4.933 8.36 8.095 10.536 13.327 9.168 6.17-1.614 6.86-.345 6.87 12.627.017 23.537-12.692 60.822-25.282 74.172-6.08 6.448-11.056 13.104-11.056 14.79 0 3.482-4.481 4.092-7.546 1.027zm-9.506-215.314c-9.019-9.556-28.273-17.125-43.56-17.125h-8.658l2.106-24.913c1.844-21.81 1.153-26.949-5.542-41.244-7.417-15.834-7.466-16.531-1.636-22.973 3.306-3.654 9.238-6.643 13.18-6.643 7.443 0 21.531 12.469 21.531 19.057 0 2.073 4.382 11.201 9.737 20.284 14.805 25.109 34.181 72.22 32.02 77.851-2.885 7.52-9.406 6.059-19.178-4.294zm4.531-113.711c-2.345-2.83-7.828-6.04-12.186-7.133-9.737-2.444-42.016-22.207-39.834-24.388.87-.87 5.927.22 11.239 2.42 19.05 7.89 83.544 7.004 111.36-1.531 3.487-1.07-1.833 2.525-11.823 7.989-9.99 5.463-22.154 10.004-27.031 10.09-13.236.232-25.111 5.658-26.357 12.041-.992 5.084-1.535 5.135-5.368.512zm-94.055-67.233c-1.325-1.325-2.408-4.687-2.408-7.472 0-3.718.977-4.087 3.674-1.39 2.02 2.02 3.104 5.383 2.408 7.472-.696 2.089-2.35 2.714-3.674 1.39zm245.333-79.52c.086-10.225 4.41-13.49 15.636-11.812 12.317 1.842 14.293 9.295 3.303 12.454a2130.38 2130.38 0 01-13.21 3.748c-3.986 1.111-5.764-.252-5.73-4.39zm-684.502-91.692c-10.36-12.983-10.956-15.038-4.368-15.038 5.511 0 18.404 15.351 18.404 21.912 0 7.363-4.393 5.211-14.036-6.874zm411.902-104.35c-2.316-3.748 3.998-13.066 8.854-13.066 5.312 0 7.214 10.476 2.45 13.493-6.074 3.846-8.724 3.746-11.304-.428zm-65.901-19.575c-2.386-3.86 12.944-8.239 17.97-5.133 1.95 1.205 2.69 3.574 1.644 5.265-2.506 4.056-17.087 3.958-19.614-.132z" fill="#515151"/><path d="M.214 970.946c0-49.16.424-52.841 6.093-52.841 3.351 0 8.561-2.727 11.578-6.061 10.53-11.635 69.295-38.298 101.13-45.885l8.167-1.946-9.435 11.259c-5.189 6.192-14.437 14.84-20.55 19.217-6.115 4.377-11.117 9.401-11.117 11.165 0 4.967 21.351.356 40.666-8.781 9.538-4.512 21.276-9.192 26.085-10.399 4.81-1.207 17.627-10.233 28.485-20.058 10.857-9.825 21.925-17.864 24.596-17.864 6.008 0 10.758-5.71 13.737-16.513 1.253-4.54 3.854-12.367 5.781-17.391 3.202-8.347 3.865-8.642 7.687-3.416 3.562 4.872 4.53 2.01 6.527-19.299 1.289-13.76 3.703-27.085 5.365-29.61 5.153-7.833 12.802 6.303 12.802 23.661 0 8.487 1.398 22.802 3.107 31.812 3.94 20.78 25.16 65.137 35.719 74.671 4.431 4 10.512 9.998 13.513 13.328 3 3.329 12.143 9.484 20.317 13.678 8.174 4.194 17.693 10.759 21.153 14.588 7.297 8.075 20.213 9.204 22.974 2.008 2.803-7.304 10.967-6.02 13.08 2.058 1.718 6.572 3.207 6.864 23.748 4.664 17.109-1.832 23.13-1.282 27.45 2.506 7.652 6.71 19.422 9.878 21.886 5.89 2.944-4.762-13.24-29.07-20.993-31.53-3.596-1.142-13.283-1.727-21.527-1.3-8.243.427-15.393.128-15.888-.664-.495-.791-4.335-6.338-8.533-12.326-12.328-17.587-9.092-22.108 15.98-22.32l21.398-.181-.737-12.286-.736-12.286 21.322 2.184c13.004 1.332 22.953.865 25.505-1.199 2.301-1.86 12.298-4.474 22.216-5.809 9.917-1.335 20.716-4.102 23.997-6.15 5.115-3.192 8.895-.63 26.552 17.996 26.09 27.525 39.32 32.54 69.843 26.472 14.371-2.856 24.471-3.165 32.356-.988 8.439 2.33 14.868 1.899 24.371-1.636 7.1-2.64 18.454-5.966 25.233-7.39 6.778-1.425 14.701-4.564 17.607-6.976 7.52-6.24 22.753-37.663 29.536-60.923 8.902-30.528 9.1-30.758 11.826-13.705 3.328 20.82 5.173 25.264 10.488 25.264 2.41 0 17.587-15.605 33.729-34.677s29.915-34.676 30.607-34.676c3.834 0-18.203 34.111-30.72 47.55-8.069 8.665-14.67 17.59-14.67 19.835 0 2.245-4.997 9.922-11.104 17.06-10.83 12.66-11.145 13.876-12.77 49.307-1.138 24.822-4.829 48.88-11.651 75.959-5.492 21.796-10.92 43.717-12.062 48.712l-2.077 9.082H.214zm541.31-9.082c-.393-10.445.47-23.282 1.92-28.528l2.633-9.538-12.832 2.407c-17.08 3.204-17.876 3.915-16.04 14.32.87 4.925 2.12 14.696 2.78 21.713 1.24 13.165 5.894 18.477 16.27 18.565 5.17.043 5.886-2.53 5.269-18.94zm251.298 58.488c0-1.889 2.925-9.167 6.5-16.175 13.643-26.742 20.493-59.519 21.612-103.415.591-23.162 2.31-41.977 3.82-41.81 5.934.655 10.644 5.295 20.938 20.624 7.568 11.271 12.42 15.517 16.51 14.448 4.76-1.245 7.314 3.555 14.35 26.97 4.706 15.667 10.941 41.86 13.854 58.208 2.913 16.347 6.088 33.067 7.055 37.153l1.758 7.431h-53.198c-34.623 0-53.199-1.199-53.199-3.434zm124.006-14.592c-1.708-13.666-.91-20.855 3.298-29.723 6.186-13.035 11.403-15.266 11.403-4.874 0 11.543 6.382 20.03 14.244 18.944 5.862-.81 7.426.87 8.302 8.91 1.556 14.28 6.18 17.362 10.807 7.205 4.298-9.434-.113-18.764-8.872-18.764-2.439 0-6.14-3.19-8.227-7.088-4.488-8.386-3.791-8.265 31.633 5.51 12.714 4.944 27.947 9.714 33.85 10.599 9.995 1.499 10.734 2.494 10.734 14.458v12.85H919.08zM477.744 804.168c-6.691-4.541-15.777-8.257-20.191-8.257-5.576 0-9.588-3.023-13.148-9.907-2.818-5.45-6.572-9.908-8.341-9.908-5.246 0-3.66-9.031 1.963-11.19 3.53-1.354 4.484-4.187 2.991-8.89-3.039-9.575 9.396-22.042 26.29-26.356 7.383-1.885 15.257-4.042 17.497-4.791 7.104-2.378.72-11.062-10.97-14.92-13.886-4.583-14.376-8.603-1.397-11.454 5.429-1.193 10.718-3.54 11.754-5.217 1.036-1.676 6.255-3.048 11.597-3.048s9.713-1.386 9.713-3.08c0-4.348-11.974-7.624-31.315-8.567-19.7-.962-55.927-12.299-68.394-21.404-11.424-8.343-26.88-5.8-31.916 5.252-2.469 5.419-5.282 7.2-9.075 5.745-3.942-1.513-10.972 3.845-24.869 18.956-10.655 11.586-19.373 22.225-19.373 23.64 0 1.417-2.177 2.576-4.838 2.576-6.83 0-11.368-10.025-9.34-20.635 1.217-6.367.16-9.605-3.61-11.052-2.931-1.125-5.33-4.658-5.33-7.852 0-3.193-3.131-9.787-6.959-14.652-5.72-7.272-6.565-11.465-4.751-23.563 2.537-16.917 6.17-18.557 12.485-5.635 3.683 7.536 6.102 8.83 14.216 7.599 15.027-2.28 30.485-1.605 58.998 2.576 15.507 2.274 27.571 2.626 29.723.868 5.03-4.113 52.058-20.622 58.112-20.401 2.725.1 18.076 1.63 34.113 3.402 23.623 2.61 31.929 2.282 43.742-1.728 10.848-3.684 16.278-4.044 21.204-1.407 7.711 4.126 7.843 4.768 2.88 14.04-3.122 5.835-2.576 7.937 3.303 12.697 10.408 8.429 8.855 11.338-10.294 19.278-35.598 14.759-39.472 18.973-23.943 26.049 10.37 4.725 10.538 9.804.45 13.64-8.143 3.095-13.367 11.815-10.174 16.981 1.022 1.653 6.789 3.005 12.817 3.005 13.682 0 17.223 4.222 21.924 26.138 2.726 12.712 2.751 18.419.094 21.076-2.005 2.005-3.645 7.568-3.645 12.362 0 9.032-10.283 16.382-22.92 16.382-3.353 0-6.951 2.23-7.997 4.954-3.196 8.329-28.832 6.363-43.076-3.302zm29.124-80.452c.966-1.563.909-3.69-.128-4.726-2.577-2.577-11.146.974-11.146 4.619 0 3.773 8.956 3.858 11.274.107zm333.856 18.635c2.717-6.753 4.939-15.954 4.939-20.446 0-8.074 5.258-14.308 8.953-10.613 2.406 2.407-7.472 28.604-13.959 37.019-4.235 5.494-4.226 4.716.067-5.96zm-170.921-25.92c-3.179-1.877-5.78-5.236-5.78-7.467 0-7.728-20.121-42.793-28.205-49.152-4.467-3.514-8.123-8.158-8.123-10.319 0-2.161 9.92-6.77 22.043-10.242l22.043-6.313 5.203 7.482c2.862 4.115 9.29 12.024 14.285 17.577 10.91 12.127 10.9 11.878 1.613 38.796-7.511 21.77-12.407 25.935-23.08 19.637zm181.923-8.795c-7.063-1.63-8.54-14.44-11.265-97.732-2.123-64.873-2.214-65.497-10.03-69.058-9.251-4.215-9.41-5.832-3.056-31.163 2.657-10.591 7.14-40.805 9.964-67.143 2.823-26.338 6.728-56.804 8.677-67.702 1.948-10.899 3.222-32.448 2.83-47.887-.969-38.195-1.27-37.003 11.524-45.714 10.84-7.382 18.318-7.387 18.318-.01 0 1.883 2.791 7.368 6.203 12.19 3.41 4.82 7.307 15.453 8.659 23.627 1.35 8.174 5.005 18.577 8.121 23.118 9.783 14.258 10.678 20.337 4.083 27.76-6.979 7.854-21.41 57.175-21.832 74.618-.24 9.917.893 11.722 7.976 12.701 4.541.629 10.142 2.691 12.447 4.584 3.014 2.477 6.065 1.745 10.874-2.607 6.63-6 6.667-5.939 4.503 7.597-1.94 12.13-1.152 14.602 7.088 22.239 9.15 8.479 9.216 8.818 5.034 25.798-2.33 9.463-4.12 22.944-3.976 29.956.165 8.04-2.161 15.831-6.295 21.087-3.606 4.584-6.557 9.653-6.557 11.263 0 7.517-50.34 127.466-55.22 131.578-1.416 1.193-5.047 1.599-8.07.9zm18.012-32.666c2.889-7.485 9.701-23.09 15.139-34.677 20.69-44.093 27.127-65.991 28.254-96.13 1.235-33.001-1.104-37.074-21.288-37.074-10.199 0-14.922 2.492-26.309 13.878C853 533.502 851.48 536.8 849.826 555.038c-1.687 18.596 4.41 124.155 7.793 134.919 1.967 6.259 5.7 1.642 12.119-14.987zm-389.831-80.616c-5.587-2.246-7.432-5.676-7.438-13.827-.007-9.522-15.563-45.027-23.474-53.574-1.77-1.913-7.522-.888-14.98 2.669-14.95 7.129-20.594 3.077-23.244-16.683-3.067-22.864 16.089-31.268 41.89-18.38 9.147 4.57 11.903 8.187 13.21 17.334 1.38 9.66 3.143 11.73 10.735 12.604 4.995.575 10.672 4.014 12.614 7.643 2.687 5.021 5.66 6.13 12.447 4.639 15.125-3.322 21.253 4.244 22.227 27.445.77 18.328.037 20.936-7.564 26.915-8.823 6.94-23.855 8.266-36.423 3.215zm66.876-73.58c-7.265-1.68-15.067-3.577-17.338-4.214-2.27-.636-4.128-4.668-4.128-8.959 0-7.481 5.478-11.88 21.106-16.95 9.72-3.153 21.827 6.616 21.827 17.611 0 12.962-5.547 16.195-21.467 12.512zm-380.537-6.716c-6.116-4.086-11.97-11.65-13.744-17.757-1.7-5.851-6.565-15.511-10.813-21.467-6.721-9.424-7.723-14.682-7.723-40.55 0-19.795-1.584-32.481-4.741-37.98-2.608-4.54-6.407-15.556-8.44-24.478l-3.7-16.221-7.052 11.954c-9.059 15.352-14.004 33.347-14.027 51.037-.01 7.72-1.39 14.036-3.065 14.036-6.672 0-10.982-24.141-8.736-48.932 2.454-27.08 6.07-36.934 13.55-36.934 2.66 0 4.837-2.75 4.837-6.113 0-3.362 3.716-13.1 8.257-21.641 4.72-8.877 8.256-21.017 8.256-28.341 0-10.012 1.478-13.282 6.763-14.96 7.69-2.44 15.123 2.527 18.176 12.147 1.424 4.486 3.802 5.853 7.559 4.345 13.815-5.547 37.196-10.305 38.697-7.876.915 1.48.713 6.474-.448 11.098-1.514 6.033-4.308 8.408-9.892 8.408-19.706 0-19.65 24.515.254 110.635 2.52 10.899 5.512 39.507 6.65 63.574 1.938 40.961 1.685 43.739-3.947 43.447-3.31-.171-10.812-3.515-16.671-7.43zm443.836-30.787c-3.426-3.426-2.589-14.31 1.1-14.31 1.817 0 3.303 3.714 3.303 8.255 0 8.647-.763 9.696-4.403 6.055zm-8.69-30.606c-5.797-10.83-3.637-15.604 3.296-7.282 3.572 4.288 6.495 9.118 6.495 10.733 0 5.295-6.3 3.074-9.792-3.451zm325.163-28.357c-1.267-9.045-3.53-22.236-5.028-29.315-2.063-9.747-1.448-14.818 2.537-20.9 4.607-7.031 5.636-7.36 8.275-2.644 1.898 3.393 1.716 6.95-.493 9.612-2.523 3.04-2.162 6.005 1.285 10.56 6.155 8.134 6.38 34.563.365 42.789-4.269 5.838-4.821 5.034-6.941-10.102zM420.467 372.36c9.92-26.631 10.625-30.01 6.54-31.382-7.86-2.642-13.39-10.6-11.743-16.9 2.379-9.099-3.869-11.37-15.183-5.52-5.594 2.894-18.231 5.09-29.289 5.09-18.033 0-20.216-.844-29.998-11.594-8.434-9.268-12.193-11.182-18.738-9.539-10.41 2.613-17.374-3.085-25.12-20.556-4.747-10.706-8.268-14.063-16.473-15.704-9.86-1.972-10.135-2.418-4.984-8.11 8.694-9.607 6.553-10.24-11.471-3.392-9.307 3.537-17.852 5.495-18.99 4.353-4.433-4.453 13.358-13.966 33.217-17.761 22.595-4.32 42.304-10.146 46.806-13.838 1.556-1.276-5.541-4.059-15.773-6.183-17.386-3.609-18.543-4.439-17.691-12.692.805-7.803-.359-8.952-10.012-9.879-6.578-.631-11.696-3.259-12.868-6.605-1.07-3.056-5.38-9.286-9.577-13.845-4.547-4.94-6.61-9.944-5.102-12.382 3.142-5.086 52.54-18.318 59.053-15.82 2.622 1.007 12.439-.325 21.815-2.959 22.258-6.252 50.88-5.133 62.046 2.426 5.18 3.507 14.487 5.804 23.118 5.706 36.488-.414 40.053 1.175 31.151 13.883-6.513 9.299-6.507 15.41.02 22.623 3.733 4.125 5.702 15.877 7.1 42.368l1.935 36.659 18.494.426c29.958.69 51.102-.899 57.548-4.325 4.912-2.61 5.625-5.592 3.85-16.097-1.226-7.255-.5-17.976 1.659-24.52 3.14-9.514 5.471-11.627 12.828-11.627 10.418 0 16.917-5.36 16.917-13.953 0-3.389 3.613-7.4 8.257-9.165 16.544-6.29 4.082-15.595-15.974-11.927-15.245 2.788-19.303-1.228-18.092-17.903.923-12.706 2.154-14.635 10.948-17.162 5.45-1.567 20.719-3.458 33.932-4.204 13.213-.745 25.103-2.002 26.42-2.793 5.114-3.068 64.081.415 67.664 3.998 2.065 2.066 5.514 3.756 7.663 3.756 2.15 0 4.683 2.963 5.63 6.585 1.414 5.406 3.553 6.22 11.945 4.54 13.612-2.722 14.103 6.513.714 13.437-8.669 4.483-13.61 11.155-13.61 18.378 0 1.524 4.708 3.804 10.462 5.068 9.017 1.98 9.655 2.749 4.625 5.564-3.21 1.797-11.262 3.606-17.893 4.02-45.23 2.825-92.748 19.12-112.966 38.741-14.98 14.537-21.404 26.114-27.604 49.738-4.441 16.923-5.056 16.974-10.108.842-2.946-9.41-18.186-12.368-46.497-9.026-14.63 1.727-30.977 5.282-36.328 7.9-8.553 4.185-9.634 6.312-8.937 17.579.934 15.088-10.599 49.781-20.072 60.38-7.19 8.045-13.747 9.968-11.264 3.303zm9.076-68.528c0-1.816-.655-3.302-1.456-3.302-.801 0-2.375 1.486-3.497 3.302-1.123 1.817-.468 3.303 1.456 3.303 1.923 0 3.497-1.486 3.497-3.303zm174.246-10.41c-7.925-8.898-10.486-9.884-20.697-7.968-16.428 3.082-18.433.586-12.802-15.94 6.724-19.734 15.976-27.181 36.617-29.475 9.454-1.051 20.978-4.393 25.608-7.427 7.084-4.642 10.723-4.935 22.977-1.85 8.008 2.017 19.094 2.76 24.635 1.652 16.344-3.269 25.983.934 32.203 14.042 4.484 9.45 4.84 13.041 1.717 17.311-2.167 2.964-6.999 10.174-10.737 16.022-7.821 12.238-24.833 17.267-38.043 11.248-4.488-2.045-13.873-3.717-20.856-3.717-10.79 0-13.008 1.24-14.77 8.256-2.89 11.52-14.535 10.55-25.852-2.154zm50.327-19.098c0-10.789-6.17-23.332-11.477-23.332-6.193 0-7.018 19.814-1.073 25.76 6.01 6.01 12.55 4.744 12.55-2.428zm-400.94 6.906c-1.142-1.849-.468-4.356 1.499-5.572 5.077-3.138 8.353 1.16 4.115 5.4-2.372 2.371-4.22 2.428-5.614.172zm559.461-8.577c0-6.916 4.91-8.88 13.731-5.495l7.736 2.969-9.297 3.642c-11.815 4.63-12.17 4.597-12.17-1.116zm-664.91-.745c-3.213-3.213-2.692-11.009.735-11.009 1.615 0 6.445 2.923 10.733 6.496l7.797 6.495-8.532.11c-4.692.06-9.522-.881-10.733-2.092zm105.344-50.293c-2.311-3.74 5.951-6.986 17.395-6.834l8.812.117-8.256 4.72c-9.623 5.5-15.389 6.142-17.95 1.997zm261.272-45.936c-7.1-7.844-7.332-26.585-.363-29.26 7.525-2.887 10.666 1.964 11.898 18.372 1.217 16.22-3.059 20.255-11.535 10.888zm-273.044-.646a3.312 3.312 0 013.302-3.302 3.312 3.312 0 013.303 3.302 3.312 3.312 0 01-3.303 3.303 3.312 3.312 0 01-3.302-3.303z" fill="#2d2d2d"/><path d="M.214 1004.28c0-17.88.55-19.362 6.605-17.779 4.947 1.294 6.605.102 6.605-4.75 0-3.564-2.973-9.169-6.605-12.457-19.57-17.71 5.39-28.733 44.297-19.56 26.565 6.262 29.513 5.53 52.969-13.158 6.846-5.455 16.675-9.882 22.759-10.251 16.31-.99 25.124-7.293 31.72-22.682 6.617-15.438 39.578-46.45 44.35-41.727 1.658 1.642 1.126 12.243-1.246 24.815-3.072 16.281-3.18 22.91-.42 25.67 2.762 2.761 3.728 2.06 3.743-2.717.011-3.542 2.011-10.255 4.444-14.917 2.433-4.662 5.45-12.57 6.707-17.573 4.223-16.828 10.27-7.617 10.78 16.423.972 45.737 1.632 95.894 1.485 112.83l-.15 17.34H.214zm130.059-64.88c1.127-2.939.574-4.265-1.298-3.108-1.796 1.11-3.265 3.416-3.265 5.126 0 4.75 2.367 3.703 4.563-2.018zm109.27 4.3c1.206-84.967 4.371-141.873 8.496-152.743 3.162-8.335 4.402-4.772 9.226 26.522 5.142 33.352 24.115 77.219 39.863 92.162 5.622 5.335 10.221 12.394 10.221 15.687 0 3.293 2.048 5.987 4.55 5.987s6.47 2.315 8.819 5.145c2.348 2.83 9.098 7.162 15 9.628 18.568 7.758 23.268 27.291 5.761 23.945-5.896-1.127-7.767-.207-7.043 3.463 1.423 7.218 12.943 13.547 14.895 8.183 3.228-8.873 15.645-3.642 31.357 13.21 29.19 31.306 34.175 28.897-59.807 28.897h-82.474zm318.448 77.61c-.193-1.363-.564-5.45-.825-9.083-.369-5.127-3.215-6.832-12.72-7.621-6.734-.56-15.286.61-19.004 2.6-5.776 3.092-7.318 2.391-10.602-4.817l-3.843-8.434-7.519 7.063c-5.582 5.244-9.79 6.493-16.339 4.85-7.86-1.973-8.593-3.346-6.738-12.625 2.921-14.604 6.989-15.887 27.74-8.747 34.048 11.714 46.048 7.166 39.895-15.12-3.388-12.27-2.734-25.57 1.972-40.082 3.18-9.81-3.686-11.493-27.15-6.658-12.835 2.645-22.826 3.003-28.745 1.03-6.004-2.001-11.884-1.743-17.384.763-7.206 3.283-10.386 2.455-23.91-6.222-8.579-5.505-18.156-10.01-21.283-10.01-3.127 0-4.767-1.486-3.644-3.302 1.123-1.817 5.581-3.303 9.908-3.303 4.326 0 8.785 1.486 9.907 3.303 3.141 5.082 12.032 3.919 16.473-2.156 4.647-6.355 12.191-3.23 9.45 3.913-1.18 3.073.164 4.848 3.67 4.848 4.07 0 4.962-1.785 3.382-6.764-2.058-6.484 3.004-16.354 8.388-16.354 1.417 0 4.25 4.802 6.295 10.67l3.72 10.67 7.56-9.483c6.24-7.825 11.226-9.984 28.514-12.348 16.499-2.257 22.066-1.872 26.196 1.808 2.884 2.57 11.76 6.41 19.723 8.53 11.92 3.175 18.47 2.88 37.054-1.675 22.267-5.457 22.733-5.433 34.312 1.723 6.457 3.99 14.172 11.942 17.146 17.67 3.107 5.985 6.014 8.614 6.835 6.18.786-2.328-.946-7.86-3.85-12.291-5.098-7.781-4.944-8.232 4.48-13.105 5.367-2.775 14.38-5.046 20.028-5.046 6.619 0 15.562-4.042 25.159-11.369 8.189-6.253 17.035-10.545 19.659-9.538 2.623 1.007 6.915.05 9.537-2.126 16.337-13.558 14.945 26.725-3.537 102.36l-12.873 52.683-74.472.046c-54.415.033-75.562-1.044-78.518-4-3.192-3.193-5.412-3.193-10.523 0-7.333 4.579-13.004 5.237-13.524 1.568zm102.33-22.315c4.32-6.345 9.099-11.537 10.617-11.537 1.518 0 4.542-3.344 6.72-7.43 4.51-8.465 4.844-8.654-21.104 11.957-8.65 6.87-14.878 13.864-13.84 15.541 3.64 5.891 9.826 2.894 17.607-8.531zm30.533-42.493c2.593-5.69 2.541-9.764-.187-14.862-6.048-11.3-10.131-8.14-10.131 7.84 0 16.203 4.683 19.39 10.318 7.022zm105.27 65.469c0-.999 2.293-6.249 5.096-11.668 12.58-24.327 21.45-62.888 24.221-105.297 2.458-37.602 7.05-40.658 21.257-14.147 5.785 10.795 11.478 17.338 15.085 17.338 7.11 0 17.464 30.552 25.18 74.307 2.884 16.348 6.017 32.324 6.963 35.503 1.585 5.324-2.196 5.78-48.04 5.78-27.369 0-49.761-.818-49.761-1.816zm125.497-16.349c0-12.787 1.283-18.164 4.333-18.164 4.161 0 18.785 17.048 18.785 21.899 0 1.292 2.46 5.068 5.466 8.39 5.227 5.776 4.725 6.04-11.56 6.04h-17.024zm47.774 10.874c1.31-4.164 3.155-11.658 4.1-16.653 1.927-10.197 3.29-10.639 16.439-5.325 5.113 2.066 14.498 4.692 20.856 5.835 10.162 1.828 11.559 3.269 11.559 11.93v9.852l-27.668.966c-27.514.96-27.655.924-25.286-6.605zM61.116 936.374c-3.526-2.667-13.47-4.896-22.098-4.954-8.627-.058-15.668-1.22-15.645-2.582.069-4.163 25.864-30.548 29.864-30.548 2.063 0 8.182-3.155 13.598-7.011 6.919-4.927 10.884-5.974 13.337-3.52 2.454 2.453-.076 7.66-8.51 17.513-13.834 16.161-15.068 21.06-4.572 18.146 21.677-6.016 22.292-6.042 22.292-.957 0 4.733-14.677 18.762-19.63 18.762-1.224 0-5.11-2.182-8.636-4.849zm683.861-87.554c-2.135-3.456 4.342-29.497 8.546-34.354 1.386-1.601 4.86 2.692 7.723 9.541 4.22 10.102 4.419 13.457 1.051 17.773-8.019 10.277-13.853 12.648-17.32 7.04zm-86.2-169.323c-2.978-5.904-9.306-14.89-14.062-19.972-7.276-7.773-7.87-9.729-3.751-12.334 12.49-7.897 30.305-1.73 35.874 12.42 1.982 5.034 5.347 11.551 7.478 14.483 6.038 8.304 1.09 16.136-10.197 16.136-7.886 0-11.039-2.206-15.342-10.733zm187.277-23.118c.28-19.587 1.099-24.46 2.911-17.338 3.779 14.85 3.779 44.584 0 44.584-1.966 0-3.144-11.023-2.911-27.246zm-383.629 11.087c-23.045-2.584-30.851-5.531-27.787-10.49 2.52-4.078 112.823-4.018 115.345.063 5.926 9.588-43.041 15.42-87.558 10.427zm-141.865-6.579c0-8.215 14.664-17.56 25.53-16.268 9.05 1.076 14.854 9.283 6.564 9.283-2.63 0-8.562 2.972-13.18 6.605-10.591 8.33-18.914 8.498-18.914.38zm525.364-41.937c.158-3.847.94-4.63 1.995-1.995.954 2.384.837 5.232-.26 6.33-1.098 1.097-1.879-.853-1.735-4.335zm-2.73-26.145c.036-7.265.712-9.849 1.502-5.74.79 4.107.76 10.052-.067 13.21-.826 3.157-1.473-.204-1.436-7.47zm-.573-26.695c.159-3.848.941-4.63 1.995-1.996.954 2.384.837 5.233-.26 6.33-1.098 1.098-1.878-.853-1.735-4.334zm.003-18.796c-.145-3.224-3.98-7.274-8.52-9-9.675-3.679-9.673-3.66-3.489-28.631 7.756-31.319 19.873-138.667 19.94-176.651.06-34.404.266-35.362 9.11-42.322 10.404-8.186 14.09-7.029 17.21 5.4 1.222 4.87 5.102 12.515 8.622 16.99 3.52 4.475 6.4 10.824 6.4 14.108 0 3.284 3.09 11.208 6.868 17.61 8.772 14.868 5.86 19.756-10.238 17.182-13.875-2.219-16.445.707-16.445 18.722 0 8.01.881 9.418 3.963 6.335 2.18-2.18 6.706-3.963 10.058-3.963 5.208 0 5.793 1.8 4.023 12.385-1.138 6.811-5.664 19.58-10.057 28.376-4.393 8.796-7.987 19.388-7.987 23.539 0 9.048 7.251 15.816 15.49 14.459 9.292-1.53 14.233 3.298 14.233 13.907 0 7.277 1.545 9.713 6.16 9.713 3.388 0 9.965 2.994 14.617 6.652 7.212 5.674 8.046 8.09 5.66 16.406-4.747 16.553-7.194 18.278-12.247 8.635-4.88-9.313-16.016-15.18-28.812-15.18-12.712 0-32.634 18.307-38.78 35.638-3.032 8.553-5.633 12.913-5.779 9.69zm-419.36-30.073c-2.275-2.741-3.65-8.41-3.057-12.597 1.29-9.098 16.21-11.767 28.89-5.168 15.631 8.134 11.336 14.459-14.166 20.86-4.644 1.165-9.115-.02-11.666-3.095zm-250.077-3.57c-1.019-2.656-4.687-5.729-8.152-6.829-3.465-1.1-6.333-4.5-6.373-7.556-.04-3.056-3.015-12.043-6.612-19.97s-7.94-26.73-9.65-41.784c-1.71-15.054-6.053-36.334-9.65-47.289-3.595-10.955-5.805-22.722-4.908-26.148 1.937-7.407-6.618-15.546-13.545-12.888-6.938 2.662-14.992 23.116-19.662 49.932-2.634 15.128-4.783 20.97-6.28 17.069-4.187-10.911-2.427-32.776 3.133-38.92 4.173-4.61 4.538-7.029 1.595-10.575-4.05-4.879-1.55-16.443 2.951-13.66 6.24 3.855 13.165-2.834 13.219-12.768.032-5.71 4.465-17.81 9.852-26.893 5.387-9.082 9.82-19.856 9.851-23.943.076-9.966 7.984-9.45 12.666.825 4.25 9.33 11.026 10.637 17.113 3.303 4.227-5.093 13.751-6.615 17.56-2.806 1.182 1.182-1.543 5.569-6.054 9.75-10.967 10.163-10.906 31.034.242 82.708 10.443 48.406 10.716 50.458 12.812 96.116 1.454 31.665.97 37.153-3.274 37.153-2.74 0-5.814-2.172-6.833-4.828zm359.56-.584c-12.269-5.184 2.462-18.916 18.328-17.085 7.037.813 8.918 2.772 8.918 9.286 0 7.112-1.602 8.346-11.558 8.9-6.358.353-13.417-.142-15.687-1.101zm397.956-88.946c-1.362-1.384-2.477-7.768-2.477-14.186 0-8.308 1.02-10.649 3.543-8.126 1.95 1.949 3.064 8.332 2.477 14.186-.586 5.854-2.18 9.51-3.543 8.126zm-509.747-94.423c-1.77-2.864 14.223-19.28 18.782-19.28 4.368 0 6.101 5.069 4.209 12.306-1.84 7.035-19.62 12.428-22.991 6.974zm-106.277-34.844c-2.326-.861-8.072-9.15-12.769-18.419l-8.54-16.853 7.816-5.92c4.298-3.256 10.529-8.537 13.847-11.735 5.742-5.537 6.235-5.538 10.271-.036 2.332 3.178 7.337 5.78 11.123 5.78 3.785 0 10.885 3.443 15.778 7.651 8.418 7.241 8.677 8.317 4.814 20.02-2.399 7.27-7.011 13.443-11.188 14.975-10.948 4.015-26.46 6.274-31.152 4.537zm121.586-7.336c-1.88-3.514-3.42-9.18-3.42-12.593 0-12.446-41.266-41.146-67.671-47.063-8.11-1.818-20.76-5.711-28.11-8.652-10.758-4.305-12.624-6.236-9.575-9.91 2.083-2.51 5.346-4.563 7.252-4.563 4.98 0 46.13 16.622 51.108 20.646 2.306 1.863 11.966 3.797 21.467 4.298 14.474.764 17.441 2.002 18.308 7.643.57 3.702 3.913 7.645 7.431 8.761 3.825 1.214 6.396 5.012 6.396 9.446 0 4.079 4.51 11.736 10.02 17.016l10.021 9.6-7.544 5.806c-9.63 7.412-11.512 7.36-15.683-.435zm-59.582-2.97c-1.806-.605-3.283-3.652-3.283-6.77 0-3.118-1.58-7.25-3.513-9.183-2.284-2.284-2.507-7.426-.635-14.696 2.242-8.71 4.806-11.41 11.6-12.211 7.086-.836 10.277 1.434 17.014 12.107 4.56 7.224 9.838 14.09 11.728 15.259 1.89 1.168 3.437 4.865 3.437 8.215 0 4.957-3.08 6.305-16.533 7.236-9.093.63-18.01.649-19.815.044zm294.521-4.89c-7.855-8.362-9.562-24.983-3.218-31.327 2.18-2.18 7.43-3.963 11.665-3.963 11.291 0 30.608 8.865 30.608 14.047 0 6.202-21.294 28.886-27.116 28.886-2.617 0-7.99-3.44-11.939-7.644zm-137.63-2.265c-5.3-2.277-4.156-2.884 5.779-3.07 6.811-.128 12.384 1.254 12.384 3.07 0 3.944-8.986 3.944-18.164 0zm24.768-27.667c0-.686 2.263-3.125 5.03-5.421 4.205-3.49 4.688-3.286 2.949 1.247-1.777 4.63-7.979 7.874-7.979 4.174zm57.795-41.686c1.122-1.817 4.554-3.28 7.625-3.252 4.813.043 4.9.493.63 3.252-6.467 4.18-10.839 4.18-8.255 0zm-298.938-18.234c-2.23-2.686-7.499-4.884-11.71-4.884-9.672 0-12.63-4.648-8.21-12.904 4.26-7.962 31.697-16.289 61.111-18.548 18.804-1.445 23.084-.685 31.59 5.604 5.412 4.001 9.84 9.027 9.84 11.167 0 6.338-32.506 17.984-50.195 17.984-8.96 0-19.008 1.454-22.33 3.233-4.39 2.348-7.15 1.897-10.096-1.652zm323.707-13.095c-4.541-2.571-14.944-5.602-23.118-6.735-8.174-1.133-17.09-2.926-19.815-3.985-2.725-1.06-6.614-1.672-8.642-1.361-2.028.31-5.471-1.585-7.651-4.212-3.215-3.874-2.334-5.845 4.664-10.43 7.54-4.941 10.26-5.116 21.567-1.384 8.29 2.736 20.508 3.563 34.004 2.303 11.587-1.082 24.273-1.128 28.192-.104 10.925 2.857 8.552 13.097-5.199 22.441-14.258 9.689-13.266 9.545-24.002 3.467z" fill="#080808"/></svg>